<?xml version="1.0" standalone="no"?>
<!DOCTYPE svg PUBLIC "-//W3C//DTD SVG 20010904//EN"
 "http://www.w3.org/TR/2001/REC-SVG-20010904/DTD/svg10.dtd">
<svg version="1.0" xmlns="http://www.w3.org/2000/svg"
 width="889.000000pt" height="896.000000pt" viewBox="0 0 889.000000 896.000000"
 preserveAspectRatio="xMidYMid meet">

<g transform="translate(0.000000,896.000000) scale(0.100000,-0.100000)"
fill="#000000" stroke="none">
<path d="M4202 8690 c-448 -31 -868 -129 -1322 -307 -553 -217 -1203 -670
-1587 -1105 -427 -486 -695 -927 -873 -1441 -114 -329 -187 -635 -226 -945
-22 -177 -30 -672 -14 -854 43 -509 201 -1065 427 -1512 132 -259 324 -556
455 -702 35 -38 74 -85 88 -104 100 -136 454 -477 648 -623 64 -49 149 -112
188 -142 159 -120 501 -322 594 -350 14 -4 43 -16 65 -26 22 -10 78 -32 125
-49 47 -17 135 -51 195 -75 61 -25 135 -51 165 -59 30 -7 111 -30 180 -49 69
-19 150 -38 180 -42 62 -7 178 -30 230 -45 119 -33 389 -67 700 -88 310 -21
768 30 1162 128 511 128 918 305 1335 581 119 78 341 253 350 274 3 8 11 15
18 15 13 0 172 144 220 199 17 19 43 46 60 60 131 112 357 373 478 551 32 47
66 96 76 110 65 89 222 370 267 479 15 36 52 122 81 191 140 326 242 690 287
1031 22 164 40 633 33 854 -4 105 -15 258 -26 340 -25 183 -77 454 -97 504 -8
21 -30 91 -49 157 -40 141 -117 350 -145 396 -11 18 -20 42 -20 53 -1 28 -116
249 -229 437 -103 173 -318 467 -477 653 -191 224 -464 480 -684 642 -673 494
-1403 779 -2184 853 -157 14 -530 20 -674 10z m835 -357 c-4 -58 -8 -309 -9
-557 -1 -248 -4 -414 -5 -368 -2 45 -7 82 -12 82 -4 0 -20 11 -35 25 -19 18
-26 34 -26 63 0 21 -6 44 -12 51 -11 11 -10 12 2 6 8 -5 12 -4 7 0 -4 5 -24
10 -45 12 -20 2 -39 8 -40 14 -2 5 -10 15 -17 23 -8 7 -11 16 -8 20 10 10 23
7 23 -5 0 -14 26 -39 40 -39 7 0 11 9 8 23 -4 21 -1 23 26 19 l31 -3 -22 19
c-20 17 -21 22 -8 32 22 18 19 76 -5 100 -11 11 -32 20 -46 20 -16 0 -23 4
-18 12 4 7 3 8 -5 4 -6 -4 -9 -11 -6 -16 3 -4 -2 -10 -10 -14 -8 -3 -21 -22
-30 -43 -13 -31 -18 -35 -26 -23 -9 12 -10 12 -5 -3 3 -10 6 -23 6 -28 0 -5 8
-9 18 -10 11 -1 9 -4 -8 -9 l-25 -8 28 -1 c15 -1 27 3 27 9 0 5 7 7 16 3 22
-8 -2 -22 -41 -23 -28 -1 -29 -2 -7 -10 27 -11 30 -24 4 -18 -25 7 -45 -24
-29 -42 10 -10 7 -10 -10 -1 -19 10 -23 9 -23 -4 0 -18 -2 -18 -34 -4 -37 17
-83 -4 -91 -42 -4 -16 -10 -27 -14 -24 -5 2 -16 -4 -25 -14 -17 -18 -16 -20 3
-26 23 -7 27 -20 11 -30 -5 -3 -10 0 -10 8 0 10 -7 13 -20 10 -11 -3 -20 -10
-20 -15 0 -5 -6 -6 -12 -2 -10 5 -10 3 0 -7 11 -12 14 -12 22 0 7 12 11 12 25
-2 15 -15 15 -17 1 -17 -20 0 -21 -34 -1 -50 8 -7 15 -18 15 -24 -1 -6 -9 0
-20 12 -11 13 -25 22 -31 20 -8 -3 -6 -10 5 -21 10 -9 13 -17 7 -17 -5 0 -13
5 -16 10 -3 6 -24 10 -45 10 -29 0 -43 -6 -59 -25 -18 -24 -20 -25 -30 -8 -9
16 -11 15 -12 -7 -1 -24 -1 -24 -10 4 -5 20 -4 34 3 43 8 10 4 13 -21 13 -43
0 -95 -23 -114 -51 l-16 -23 -21 27 c-37 47 -110 30 -110 -25 0 -26 -35 -48
-109 -69 -23 -7 -46 -20 -49 -28 -16 -42 -20 74 -21 602 l-1 567 562 0 561 0
-6 -107z m-1312 11 c65 -31 88 -98 57 -167 -16 -35 -28 -48 -56 -58 -35 -13
-36 -15 -36 -62 0 -36 -3 -46 -12 -41 -7 5 -1 -8 15 -28 l27 -37 0 -395 0
-395 118 -113 c64 -62 161 -157 216 -210 l99 -99 -39 -33 -39 -34 -52 47 c-28
25 -130 120 -226 211 l-175 165 -7 199 c-8 228 3 778 16 770 5 -3 9 6 9 20 0
14 -4 26 -9 26 -21 0 -70 60 -81 98 -9 35 -8 48 6 78 32 67 101 90 169 58z
m1667 -23 c23 -25 28 -41 28 -81 0 -51 -6 -59 -29 -37 -10 10 -12 7 -9 -13 1
-14 -1 -25 -7 -26 -5 0 -27 -4 -47 -8 -51 -11 -86 -1 -120 36 -32 34 -35 67
-11 109 40 67 144 77 195 20z m-2003 14 c79 -40 76 -187 -4 -223 -34 -16 -34
-71 0 -131 l25 -43 0 -467 0 -467 110 -102 c94 -89 118 -106 172 -123 35 -12
77 -30 95 -40 32 -20 93 -102 93 -125 0 -7 2 -18 5 -26 3 -8 -3 -13 -20 -14
-14 -1 -23 2 -20 6 3 5 -3 7 -12 6 -11 -2 -22 -19 -30 -45 -35 -122 -117 -164
-256 -132 l-38 9 38 -35 c34 -31 35 -33 8 -18 -130 75 -149 206 -52 348 11 16
0 30 -96 122 l-107 103 0 559 c0 307 0 570 0 586 0 16 -5 27 -14 27 -8 0 -28
16 -45 35 -26 30 -31 44 -31 88 0 54 16 84 55 105 28 16 91 15 124 -3z m2322
-2 c36 -22 64 -76 50 -100 -24 -46 -93 -93 -135 -93 -28 0 -72 39 -86 75 -12
30 3 81 32 112 27 28 95 32 139 6z m-2648 -227 c52 -22 70 -50 75 -114 4 -51
1 -62 -22 -89 -14 -17 -39 -36 -56 -43 -42 -17 -43 -54 -1 -48 l30 4 1 -525 1
-526 82 -83 82 -83 -33 -30 -33 -30 -57 45 c-31 25 -76 65 -99 88 l-43 44 -7
567 c-6 562 -6 568 -27 579 -64 33 -96 101 -76 163 26 78 106 114 183 81z
m2953 -1 c53 -22 73 -52 74 -109 0 -35 -5 -53 -17 -63 -10 -8 -12 -11 -5 -8
11 6 12 3 3 -14 -11 -20 -111 -77 -111 -63 0 4 23 17 50 30 28 13 48 28 44 33
-4 6 -13 4 -24 -6 -14 -12 -20 -13 -26 -4 -5 8 -3 10 6 4 9 -6 11 -4 5 5 -6
10 -11 9 -21 -4 -6 -10 -26 -18 -43 -18 -20 -1 -31 -6 -31 -15 0 -8 4 -12 9
-8 5 3 12 1 16 -5 10 -17 -15 -11 -45 10 -60 43 -74 146 -28 205 36 46 83 56
144 30z m-3301 -30 c14 -13 25 -33 25 -45 0 -26 -43 -70 -67 -70 -34 0 -63 29
-63 63 0 37 7 49 35 65 30 17 43 15 70 -13z m3619 -6 c33 -39 33 -44 -4 -80
-31 -32 -58 -33 -89 -3 -23 21 -18 74 8 96 33 26 55 23 85 -13z m-674 -1 c0
-18 -2 -20 -9 -8 -6 8 -7 18 -5 22 9 14 14 9 14 -14z m4 -122 c3 -16 6 -250 6
-521 l0 -493 -100 -92 c-55 -51 -100 -98 -100 -105 0 -7 12 -33 26 -59 40 -71
29 -83 -33 -41 -57 38 -62 38 -37 0 12 -19 15 -40 12 -82 -5 -51 -9 -60 -51
-100 -43 -40 -49 -43 -103 -43 -52 0 -59 3 -90 37 -34 37 -47 36 -19 -1 24
-32 17 -41 -11 -15 l-27 24 12 -23 c21 -40 4 -36 -23 5 -32 49 -41 107 -27
174 20 94 82 152 180 172 56 12 67 19 170 116 l111 103 0 457 c0 252 3 493 7
536 l6 78 43 -49 c23 -27 45 -62 48 -78z m1000 57 c16 -9 12 -14 -35 -37 -30
-14 -94 -57 -144 -96 -49 -39 -129 -98 -177 -132 l-88 -63 0 -142 0 -143 428
0 427 0 38 -31 37 -30 0 -435 0 -434 -50 0 -50 0 0 415 0 415 -460 0 -460 0 1
213 0 212 175 135 c96 74 200 149 231 167 56 31 57 31 82 14 14 -10 34 -23 45
-28z m-1344 -28 c11 -4 18 -11 15 -16 -4 -5 -1 -9 4 -9 8 0 11 -133 10 -427
l-1 -428 -105 -95 c-149 -133 -250 -228 -299 -279 -39 -41 -43 -43 -63 -29
-11 8 -18 18 -13 23 4 5 2 5 -4 2 -6 -4 -20 0 -30 9 -18 14 -7 26 196 224
l215 210 -4 437 -3 437 31 -26 c17 -15 40 -30 51 -33z m1401 -124 c16 -16 29
-38 29 -49 0 -17 9 -21 59 -27 53 -6 71 -15 187 -97 161 -112 347 -249 356
-263 9 -12 10 -723 1 -857 l-6 -98 -44 0 -43 0 0 454 0 454 -107 80 c-119 87
-267 194 -355 256 -32 22 -58 46 -58 54 0 13 -3 12 -18 -1 -10 -10 -40 -21
-66 -26 -41 -8 -51 -6 -67 10 -47 47 5 138 79 139 13 0 37 -13 53 -29z m-4319
-213 l3 -203 218 -3 217 -2 0 -50 0 -50 -265 0 -265 0 0 228 c0 125 4 232 8
238 7 11 61 43 74 44 4 0 9 -91 10 -202z m427 168 c8 -9 11 -52 9 -127 l-3
-114 -163 0 -164 0 3 120 c2 66 5 123 7 128 2 4 70 7 151 7 115 0 151 -3 160
-14z m3151 -604 l0 -497 -86 -82 -87 -81 -38 20 c-22 11 -39 25 -39 32 0 6 32
42 70 80 l70 70 0 481 c0 265 3 504 7 530 l6 48 49 -52 48 -51 0 -498z m497
446 c13 -12 23 -26 23 -33 0 -13 -84 -85 -99 -85 -5 0 -14 -7 -19 -16 -8 -15
-11 -15 -31 5 -30 30 -29 94 4 126 32 33 89 34 122 3z m-1637 -4 c0 -8 -5 -12
-10 -9 -6 4 -8 11 -5 16 9 14 15 11 15 -7z m-75 -14 c3 -5 1 -10 -4 -10 -6 0
-11 5 -11 10 0 6 2 10 4 10 3 0 8 -4 11 -10z m50 -38 c0 -17 6 -37 13 -43 6
-7 12 -18 12 -23 0 -6 -5 -4 -11 4 -9 13 -10 13 -6 0 2 -8 12 -14 21 -12 10 2
23 -1 30 -7 8 -7 21 -5 41 8 29 17 30 17 53 -11 30 -36 24 -45 -12 -17 -25 20
-64 20 -51 0 3 -5 1 -12 -5 -16 -6 -3 -12 0 -15 7 -4 11 -58 17 -72 9 -1 -1 2
-14 7 -31 8 -27 6 -30 -15 -30 -33 0 -73 -20 -79 -39 -3 -10 -4 -9 -3 4 1 11
13 25 27 32 26 13 45 49 30 58 -7 4 -6 13 0 26 8 13 7 19 0 19 -6 0 -14 -8
-17 -17 -12 -32 -43 -44 -43 -18 0 8 -4 15 -10 15 -5 0 7 17 27 37 34 33 35
37 18 44 -17 7 -18 8 -2 8 27 1 32 0 30 -10 -5 -16 15 -9 21 8 4 9 1 20 -6 25
-10 7 -9 9 2 5 9 -2 15 -16 15 -35z m-2625 -192 l0 -210 190 0 190 0 0 -39 0
-40 -237 2 -236 2 -2 235 c-1 129 0 241 3 248 2 7 22 12 48 12 l44 0 0 -210z
m-208 -157 l3 -348 298 -3 297 -2 0 -50 0 -50 -350 0 -350 0 2 392 3 393 30 6
c71 15 64 47 67 -338z m4892 290 l51 -38 -55 -3 c-53 -3 -251 13 -297 25 -27
6 -30 28 -5 42 9 6 70 11 136 11 l118 0 52 -37z m-5168 -106 l41 -53 -42 -39
c-23 -22 -45 -47 -49 -55 -5 -13 -7 -13 -12 -1 -4 8 -25 34 -46 58 l-40 42 43
50 c24 28 49 50 54 50 6 0 29 -24 51 -52z m3151 -9 c-3 -20 -4 -21 -11 -5 -5
9 -5 29 0 45 7 25 8 26 11 5 3 -13 3 -33 0 -45z m-258 35 c1 9 6 17 11 17 11
0 13 -11 4 -34 -5 -13 -9 -14 -20 -5 -8 6 -14 19 -13 28 0 12 2 11 9 -4 7 -17
9 -17 9 -2z m365 -13 c-7 -7 -19 -7 -35 -1 -23 9 -22 10 11 10 23 1 31 -2 24
-9z m46 -9 c0 -5 -7 -11 -14 -14 -10 -4 -13 -1 -9 9 6 15 23 19 23 5z m-108
-33 c-8 -8 -9 -4 -5 13 4 13 8 18 11 10 2 -7 -1 -18 -6 -23z m-192 8 c0 -2 -7
-7 -16 -10 -8 -3 -12 -2 -9 4 6 10 25 14 25 6z m-7 -33 c-7 -2 -9 -11 -6 -20
5 -12 3 -14 -8 -8 -8 5 -11 4 -6 0 14 -16 36 -14 30 3 -4 15 -3 15 6 2 14 -20
14 -43 -1 -34 -8 5 -9 2 -5 -9 4 -12 1 -17 -10 -17 -14 0 -15 -2 -4 -12 8 -8
15 -9 17 -3 13 32 23 40 36 27 21 -21 67 -14 93 14 14 15 22 30 20 34 -5 8 25
24 31 17 2 -2 -7 -16 -20 -32 -23 -27 -42 -80 -25 -69 5 3 9 12 9 20 0 8 5 14
11 14 5 0 7 -4 4 -10 -3 -5 -1 -10 4 -10 6 0 12 12 12 28 2 24 2 23 9 -8 4
-19 8 -27 9 -17 1 15 3 15 21 -3 24 -24 42 -26 34 -5 -4 9 0 15 10 15 9 0 16
-4 16 -10 0 -20 25 -4 31 20 5 19 7 16 8 -17 l1 -42 -414 -1 c-367 0 -414 1
-420 15 -3 9 -2 13 4 10 18 -11 50 -14 50 -4 0 5 5 9 11 9 5 0 7 -5 3 -12 -5
-7 -3 -8 6 -3 7 4 28 8 47 7 31 -1 34 1 28 21 -6 20 -5 21 8 5 17 -22 31 -23
23 -3 -8 22 17 18 34 -5 18 -25 28 -26 26 -2 0 9 -10 22 -20 27 -25 13 -31 32
-11 32 8 0 13 -3 10 -5 -7 -8 47 -42 66 -42 9 0 22 -6 29 -14 6 -8 19 -12 27
-9 9 4 14 2 11 -3 -4 -5 4 -9 17 -9 13 0 21 3 19 7 -2 4 0 9 6 13 5 3 10 1 10
-5 0 -6 4 -9 9 -6 4 3 6 18 4 33 -4 26 -3 26 10 11 8 -10 24 -18 36 -18 19 0
21 5 18 43 -4 38 -1 43 17 44 12 1 16 -1 9 -4z m-43 -18 c0 -8 -4 -15 -10 -15
-5 0 -10 7 -10 15 0 8 5 15 10 15 6 0 10 -7 10 -15z m-40 1 c0 -2 -8 -10 -17
-17 -16 -13 -17 -12 -4 4 13 16 21 21 21 13z m347 -23 c-7 -7 -57 8 -57 18 0
4 14 3 31 -3 16 -6 28 -12 26 -15z m40 -18 c3 -9 2 -19 -2 -23 -4 -4 -10 -1
-12 6 -3 6 -9 10 -14 6 -5 -3 -14 -2 -21 2 -8 5 -6 10 8 15 29 11 34 10 41 -6z
m-437 -10 c11 -13 10 -14 -3 -10 -8 4 -18 2 -22 -4 -8 -14 -25 -14 -25 0 0 5
5 7 10 4 6 -3 13 1 16 9 8 20 9 20 24 1z m-350 0 c0 -2 -10 -10 -22 -16 -21
-11 -22 -11 -9 4 13 16 31 23 31 12z m-43 -41 c-3 -3 -12 -4 -19 -1 -8 3 -5 6
6 6 11 1 17 -2 13 -5z m-137 -28 c8 -2 -13 -4 -47 -5 -35 0 -63 2 -63 7 0 7
76 5 110 -2z m127 8 c-3 -3 -12 -4 -19 -1 -8 3 -5 6 6 6 11 1 17 -2 13 -5z
m-2627 -144 l0 -130 -50 0 -50 0 0 130 0 130 50 0 50 0 0 -130z m1300 0 l41
-27 -48 -24 c-29 -15 -57 -39 -73 -62 l-24 -38 -19 40 c-11 23 -34 49 -54 61
l-35 21 45 47 c24 27 50 59 57 71 12 23 12 23 40 -19 15 -23 47 -55 70 -70z
m-1090 -30 l0 -100 -40 0 -40 0 0 100 0 100 40 0 40 0 0 -100z m4475 20 c4
-39 13 -76 20 -83 9 -10 11 -67 7 -242 l-4 -230 -157 -158 c-106 -107 -155
-164 -154 -177 2 -17 0 -18 -23 -8 -30 14 -44 0 -44 -45 0 -16 -12 -48 -26
-72 -46 -79 -148 -107 -229 -64 -36 19 -38 20 -24 3 26 -31 34 -48 18 -40 -8
4 -5 0 5 -8 11 -9 17 -19 13 -23 -9 -9 -48 27 -41 39 3 4 0 7 -6 6 -7 -2 -23
17 -36 41 -34 64 -33 146 3 213 50 92 171 134 267 94 l34 -14 88 78 c49 43
117 107 152 142 l63 64 5 232 c3 128 1 232 -3 232 -5 0 -19 -7 -31 -16 -39
-27 -27 11 19 61 61 66 75 61 84 -25z m374 22 c28 -26 51 -53 51 -60 0 -7 -14
-12 -31 -12 -29 0 -30 2 -24 29 3 17 2 32 -4 36 -7 4 -11 -4 -11 -19 0 -14 -7
-29 -17 -34 -14 -9 -14 -10 5 -16 25 -8 24 7 23 -606 0 -173 -1 -344 -1 -380
0 -50 -3 -61 -12 -52 -15 15 -38 16 -38 2 0 -5 7 -10 15 -10 28 0 15 -18 -71
-99 -84 -79 -86 -83 -81 -119 3 -20 3 -31 0 -24 -2 6 -9 9 -15 6 -6 -4 -24 8
-41 27 l-29 34 6 -30 c17 -88 17 -92 -17 -137 -18 -24 -52 -53 -77 -65 -52
-27 -131 -31 -150 -8 -7 8 -17 15 -23 15 -5 0 -16 8 -24 18 -14 16 -14 16 -9
-1 10 -32 -18 -14 -36 24 -45 87 2 227 93 278 55 31 111 36 185 16 l65 -17 77
69 77 70 3 512 2 512 -24 -16 c-26 -17 -43 -6 -29 19 10 17 92 86 103 86 4 0
31 -22 59 -48z m258 20 c0 -9 2 -146 3 -304 2 -239 4 -288 16 -288 8 0 14 -5
14 -11 0 -6 -7 -9 -15 -5 -13 4 -15 -9 -15 -87 0 -63 3 -87 10 -77 7 11 10 7
10 -17 0 -18 -4 -33 -10 -33 -5 0 -10 -5 -10 -11 0 -5 4 -8 8 -5 5 3 6 -8 4
-25 -4 -30 3 -35 27 -20 12 8 13 12 1 25 -10 13 -11 32 -4 79 4 34 7 204 6
377 0 173 3 340 7 370 5 34 9 -169 10 -517 1 -483 -1 -573 -13 -573 -13 0 -23
-23 -33 -75 -2 -11 -6 -60 -10 -109 -4 -65 -3 -87 6 -82 7 5 11 -1 11 -14 0
-12 -4 -18 -10 -15 -6 4 -10 -11 -10 -37 0 -27 3 -38 9 -30 6 10 10 8 14 -10
18 -65 10 -81 -70 -154 -90 -80 -216 -197 -253 -235 -14 -14 -41 -40 -61 -57
-30 -26 -39 -30 -48 -18 -9 10 -7 17 6 27 9 8 14 9 10 2 -4 -6 -2 -15 4 -18 7
-5 10 1 8 16 -2 13 0 30 4 37 13 20 0 14 -38 -19 -35 -31 -65 -33 -65 -5 0 8
95 103 210 211 l210 197 2 176 c1 97 2 438 3 757 0 319 3 585 8 592 10 16 43
5 44 -15z m-550 -86 c-7 -21 -42 -12 -45 12 -2 12 2 22 8 22 6 0 8 6 5 13 -4
6 3 1 15 -12 11 -13 19 -29 17 -35z m-2024 -61 c-1 -59 2 -75 15 -80 8 -3 19
-1 22 6 4 6 8 1 8 -13 0 -13 -19 -44 -44 -73 l-44 -50 0 146 0 146 23 -4 c21
-4 22 -9 20 -78z m418 75 l29 0 0 -85 c0 -56 -4 -85 -11 -85 -8 0 -8 -4 -2
-12 15 -20 12 -48 -6 -48 -14 0 -14 -2 -1 -10 8 -5 12 -12 8 -15 -3 -3 -22 9
-42 28 l-36 34 0 103 c0 89 2 101 16 96 9 -3 29 -6 45 -6z m-2591 -4 c0 -3 -4
-8 -10 -11 -5 -3 -10 -1 -10 4 0 6 5 11 10 11 6 0 10 -2 10 -4z m5440 -336 l0
-260 -50 0 -50 0 0 228 c0 224 0 229 23 249 23 22 57 42 70 43 4 0 7 -117 7
-260z m200 -5 l0 -255 -45 0 -45 0 0 229 0 228 38 26 c20 14 40 26 45 26 4 1
7 -114 7 -254z m-4930 36 l0 -148 149 -142 149 -141 38 16 c82 34 209 -7 261
-85 31 -46 29 -59 -12 -67 -33 -6 -35 -9 -35 -44 0 -55 -63 -124 -135 -146
-50 -16 -57 -16 -95 -1 -37 14 -40 14 -40 -1 0 -8 10 -27 23 -40 20 -22 20
-24 2 -14 -80 42 -124 154 -102 263 l8 37 -161 153 -160 154 0 140 0 140 48
37 c26 20 50 37 55 37 4 1 7 -66 7 -148z m-1241 107 c67 -42 89 -123 56 -206
-50 -125 -249 -125 -299 -1 -37 92 -7 176 76 218 51 26 113 22 167 -11z m-359
-54 c0 -63 0 -63 -72 -18 l-43 27 50 24 c28 12 53 23 58 23 4 0 7 -25 7 -56z
m3860 -561 c201 -197 525 -510 720 -697 195 -186 391 -375 435 -420 44 -44
221 -220 394 -390 l314 -309 -89 -85 c-49 -47 -170 -164 -269 -261 -259 -252
-352 -339 -290 -272 28 30 63 67 79 82 16 14 26 31 22 38 -4 7 -2 9 7 5 8 -3
18 -1 22 5 3 6 0 11 -7 11 -7 0 5 9 27 19 22 11 37 20 32 20 -4 1 14 21 39 46
40 38 45 47 34 60 -11 14 -10 14 14 6 14 -6 26 -9 27 -8 0 1 2 10 4 20 4 23
15 35 15 18 0 -7 5 -9 10 -6 6 4 8 11 5 16 -4 5 0 9 8 9 8 0 20 7 27 15 10 12
9 16 -5 22 -12 4 -23 0 -31 -12 -8 -10 -14 -14 -14 -8 0 17 28 36 45 29 8 -3
15 0 15 7 0 9 2 9 9 -1 6 -10 10 -10 21 3 7 8 9 15 4 15 -5 0 -1 7 9 14 18 14
18 15 0 25 -10 6 -13 11 -6 11 6 0 15 -5 18 -11 9 -14 30 -6 30 12 0 8 8 13
19 11 19 -4 16 6 -13 43 -11 14 -7 12 12 -4 15 -14 27 -20 27 -14 0 5 11 16
25 23 13 7 23 18 22 23 -1 6 3 11 8 12 18 0 61 45 44 45 -8 0 -21 -6 -28 -12
-11 -10 -13 -10 -7 0 6 9 -16 12 -95 12 -121 0 -97 -16 -336 223 -87 86 -163
155 -170 153 -7 -3 -10 0 -7 7 5 15 -284 293 -300 289 -6 -2 -8 0 -3 4 10 10
-53 75 -66 67 -6 -3 -7 -1 -4 4 7 11 -126 137 -135 128 -2 -3 -15 7 -29 23
l-24 27 30 -25 c17 -13 -6 12 -50 57 -43 45 -83 79 -87 77 -5 -3 -7 0 -6 7 2
7 -4 13 -12 14 -8 0 -15 7 -15 15 -1 8 -7 14 -14 12 -7 -1 -10 2 -7 7 7 10
-133 137 -146 133 -5 -1 -7 2 -4 6 7 11 -283 288 -296 284 -5 -1 -7 1 -4 6 8
13 -203 214 -216 206 -6 -4 -8 -3 -5 3 3 5 -19 34 -50 64 -31 30 -52 47 -48
39 5 -8 6 -13 2 -10 -3 3 -6 10 -7 15 -2 17 -42 55 -52 49 -5 -3 -7 -1 -6 4 2
5 -39 49 -89 96 -51 48 -98 99 -105 114 -19 38 -33 37 -46 -5 -9 -31 -86 -112
-404 -423 -216 -212 -501 -489 -633 -615 -132 -126 -377 -365 -545 -531 -398
-393 -443 -436 -516 -485 l-61 -41 -114 0 c-182 -1 -182 -4 -32 143 481 470
1450 1425 1823 1795 245 243 459 453 475 467 l30 25 115 -118 c63 -65 279
-280 480 -477z m-2570 367 c34 -43 32 -63 -5 -54 l-24 6 6 -258 6 -259 26 -20
c14 -11 49 -41 78 -67 l51 -46 39 13 c54 20 131 18 179 -4 71 -32 144 -135
115 -164 -8 -8 -22 -1 -52 28 -32 31 -38 34 -29 16 7 -14 13 -48 14 -77 0 -42
-5 -58 -28 -88 -53 -71 -110 -91 -197 -70 -29 8 -63 19 -74 25 -16 9 -18 9 -7
-2 6 -7 12 -19 12 -27 0 -20 -33 25 -47 63 -21 57 -24 87 -13 142 l12 54 -97
92 -97 92 9 265 c5 146 7 273 5 282 -3 14 -8 15 -22 8 -51 -28 -38 11 22 64
59 51 67 50 118 -14z m-321 12 c47 -44 52 -62 16 -62 l-25 0 0 -464 0 -464
163 -150 c225 -208 268 -254 257 -271 -9 -15 -23 -5 -180 132 -67 60 -87 71
-87 52 0 -8 4 -12 9 -9 4 3 8 -2 8 -10 0 -8 7 -22 16 -30 9 -9 11 -16 4 -16
-6 0 -8 -5 -4 -12 5 -9 3 -9 -9 1 -9 7 -14 18 -10 24 3 6 1 7 -5 3 -7 -4 -63
43 -138 116 l-126 123 1 455 c1 250 4 472 8 493 6 37 -3 47 -24 26 -7 -7 -20
-9 -29 -5 -15 6 -10 15 31 56 27 28 57 50 66 50 10 0 36 -17 58 -38z m5830
-15 c19 -28 47 -73 62 -99 l28 -48 -135 0 c-105 0 -134 3 -128 13 25 42 127
187 133 187 3 0 21 -24 40 -53z m-1132 -29 c-3 -8 -6 -5 -6 6 -1 11 2 17 5 13
3 -3 4 -12 1 -19z m-5947 -148 l0 -70 60 0 60 0 0 70 0 70 40 0 40 0 0 -105 0
-105 -146 0 -146 0 6 31 c3 17 6 65 6 105 l0 74 40 0 40 0 0 -70z m600 -102
c0 -79 -4 -149 -9 -157 -8 -12 -15 -9 -41 12 -17 15 -36 27 -41 27 -5 0 -9 57
-9 130 l0 130 50 0 50 0 0 -142z m336 11 c24 -6 47 -15 49 -20 6 -9 -102 -129
-116 -129 -5 0 -24 31 -43 69 l-34 69 36 10 c51 14 57 14 108 1z m925 -58 c67
-67 1 -174 -87 -141 -38 15 -53 38 -54 83 0 81 83 115 141 58z m3472 17 c34
-17 46 -39 47 -80 0 -28 -7 -42 -31 -62 -41 -35 -83 -34 -120 3 -32 33 -36 58
-14 101 25 48 72 63 118 38z m1927 -58 l0 -60 -620 0 -620 0 0 60 0 60 620 0
620 0 0 -60z m-3573 -93 c10 4 13 0 11 -12 -2 -10 3 -20 11 -23 9 -3 11 0 6 8
-5 8 -4 11 3 6 6 -4 9 -12 6 -20 -3 -7 10 -20 30 -31 22 -12 32 -23 28 -33 -3
-10 -1 -13 6 -8 7 4 12 16 12 27 0 10 4 19 9 19 6 0 6 -12 1 -30 -5 -16 -5
-29 -2 -29 20 3 32 -3 41 -19 24 -46 -27 -12 -127 81 -120 112 -142 136 -142
150 0 5 21 -13 46 -41 29 -32 52 -48 61 -45z m-47 63 c0 -5 -2 -10 -4 -10 -3
0 -8 5 -11 10 -3 6 -1 10 4 10 6 0 11 -4 11 -10z m-3430 -96 c22 -9 40 -22 40
-29 0 -6 -9 -38 -20 -70 -11 -32 -19 -59 -18 -60 2 -2 22 -12 44 -23 l42 -21
45 34 c37 29 77 45 77 32 0 -1 4 -17 9 -34 5 -18 6 -31 3 -30 -14 4 -111 -63
-122 -84 -28 -51 34 -98 137 -107 67 -5 77 -10 67 -36 -5 -12 -15 -15 -38 -12
-17 3 -55 8 -83 11 l-53 6 0 -36 c0 -20 -9 -54 -21 -77 -13 -25 -18 -49 -14
-65 3 -14 2 -22 -3 -19 -11 7 -96 -46 -137 -85 -29 -27 -33 -28 -85 -20 -30 5
-62 12 -71 16 -12 5 -20 -8 -37 -60 -12 -36 -22 -72 -22 -80 0 -16 -17 -19
-44 -9 -22 9 -20 39 9 109 l25 60 -23 17 c-61 47 -65 47 -119 -10 -29 -31 -56
-51 -64 -48 -16 6 -54 65 -54 83 0 6 19 24 43 40 30 20 43 37 45 56 5 46 -12
57 -89 57 -74 0 -89 11 -89 62 0 38 19 48 86 48 54 0 65 3 78 22 31 44 16 76
-57 122 -33 20 -30 46 12 89 l28 28 42 -35 c49 -41 68 -44 105 -15 30 23 32
45 11 95 -8 19 -12 41 -9 48 6 17 48 36 78 36 19 0 25 -7 32 -41 11 -52 46
-81 87 -72 16 3 33 15 37 27 5 11 16 38 24 59 8 20 17 37 20 37 3 0 24 -7 46
-16z m676 -33 c151 -69 129 -293 -32 -317 -136 -20 -249 103 -203 223 36 95
140 137 235 94z m3105 -8 c13 -16 12 -17 -3 -4 -10 7 -18 15 -18 17 0 8 8 3
21 -13z m3072 -15 c36 -42 9 -108 -44 -108 -17 0 -38 4 -47 9 -13 7 -44 -4
-117 -41 -162 -81 -326 -199 -404 -289 l-34 -40 -33 32 c-19 18 -34 39 -34 46
0 23 122 135 216 200 116 79 277 161 336 172 25 4 58 18 74 30 31 24 59 21 87
-11z m-529 16 c9 -3 16 -12 16 -19 0 -14 52 -25 118 -25 23 0 42 -5 42 -11 0
-15 -87 -51 -118 -48 -15 2 -37 -2 -49 -9 -32 -17 -60 -15 -83 8 -52 52 4 131
74 104z m-2694 -28 c0 -3 -4 -8 -10 -11 -5 -3 -10 -1 -10 4 0 6 5 11 10 11 6
0 10 -2 10 -4z m23 -13 c-6 -16 -5 -17 13 -3 18 14 18 14 5 -2 -10 -14 -11
-21 -2 -31 6 -8 8 -17 4 -20 -3 -4 -2 -7 3 -7 6 0 15 5 21 11 8 8 13 8 17 0 4
-6 0 -11 -8 -11 -13 0 -13 -4 2 -30 20 -35 26 -37 38 -11 8 18 10 18 24 3 13
-14 12 -15 -3 -9 -9 3 -17 3 -18 -1 0 -4 -2 -17 -5 -28 -2 -13 4 -28 13 -35
15 -12 16 -12 10 4 -4 11 -3 16 4 12 6 -4 8 -13 5 -21 -7 -17 10 -19 17 -1 4
9 8 8 16 -3 9 -13 11 -13 11 3 0 9 4 17 10 17 5 0 7 -7 4 -15 -4 -8 -1 -15 5
-15 17 0 -3 -33 -22 -36 -15 -2 -139 116 -143 138 -2 7 -5 20 -7 28 -1 8 -9
25 -15 38 -7 12 -10 27 -7 32 10 16 15 11 8 -7z m162 7 c3 -6 -1 -7 -9 -4 -18
7 -21 14 -7 14 6 0 13 -4 16 -10z m2190 -2 c57 -26 35 -108 -30 -108 -24 0
-39 7 -49 22 -22 31 -20 45 9 73 27 28 34 30 70 13z m1160 -8 c3 -6 -3 -22
-14 -36 -11 -15 -18 -31 -14 -37 4 -6 0 -8 -10 -4 -10 3 -17 2 -17 -2 0 -5 7
-11 15 -15 8 -3 15 -10 15 -15 0 -7 -8 -7 -22 -2 -13 5 -22 14 -20 20 1 6 -4
10 -10 9 -20 -4 -22 51 -2 73 18 20 69 26 79 9z m-2391 -25 c-4 -8 -11 -15
-16 -15 -6 0 -5 6 2 15 7 8 14 15 16 15 2 0 1 -7 -2 -15z m-974 -19 c0 -3 -4
-8 -10 -11 -5 -3 -10 -1 -10 4 0 6 5 11 10 11 6 0 10 -2 10 -4z m-424 -31 c58
-17 102 -58 108 -100 2 -17 1 -24 -1 -17 -6 17 -23 15 -23 -4 0 -8 -4 -13 -8
-10 -5 3 -16 -10 -25 -28 -10 -22 -35 -45 -71 -65 -31 -18 -65 -44 -76 -58
-11 -14 -20 -20 -20 -13 0 7 -3 10 -6 7 -24 -23 -84 68 -84 125 1 72 59 153
122 168 18 4 33 8 34 9 0 1 23 -6 50 -14z m284 -7 c0 -6 -6 -5 -15 2 -8 7 -15
14 -15 16 0 2 7 1 15 -2 8 -4 15 -11 15 -16z m85 12 c-3 -5 -12 -10 -18 -10
-7 0 -6 4 3 10 19 12 23 12 15 0z m62 -56 c-3 -3 -12 -4 -19 -1 -8 3 -5 6 6 6
11 1 17 -2 13 -5z m-3562 -24 c-3 -5 -12 -10 -18 -10 -7 0 -6 4 3 10 19 12 23
12 15 0z m3635 -31 c0 -6 -4 -7 -10 -4 -5 3 -10 11 -10 16 0 6 5 7 10 4 6 -3
10 -11 10 -16z m2920 -24 c106 -78 235 -234 280 -340 28 -66 43 -155 31 -185
-6 -15 -10 -18 -10 -9 -1 9 -10 24 -22 35 -12 10 -28 36 -36 57 -8 20 -20 37
-26 37 -6 0 -8 3 -4 6 3 3 2 11 -3 18 -5 6 -37 48 -70 93 -61 82 -168 189
-247 246 -44 31 -54 47 -29 47 7 0 19 7 26 15 20 24 59 17 110 -20z m-5560
-27 c22 -23 40 -45 40 -48 0 -4 -11 -15 -25 -24 -14 -10 -34 -31 -45 -48 l-18
-30 -12 23 c-7 13 -26 36 -43 50 l-31 26 40 46 c21 26 43 46 47 47 4 0 26 -19
47 -42z m4300 -8 c34 -31 48 -50 38 -50 -10 0 -34 -20 -54 -45 l-38 -44 -16
27 c-10 15 -29 38 -44 51 l-26 24 43 43 c23 24 42 43 42 44 1 0 25 -22 55 -50z
m475 4 c43 -147 260 -396 413 -473 23 -12 42 -23 42 -26 0 -12 -96 -45 -114
-39 -60 19 -178 125 -242 218 -19 28 -53 74 -75 101 -44 56 -87 155 -96 222
l-6 44 33 -3 c29 -3 34 -8 45 -44z m1154 20 c15 -13 -61 -193 -84 -201 -6 -2
-21 11 -34 28 l-24 32 32 61 c17 34 31 69 31 79 0 15 6 17 38 11 20 -4 39 -8
41 -10z m-3265 -16 c20 -29 21 -44 1 -24 -8 8 -15 19 -15 25 0 6 -3 11 -7 11
-11 0 -10 -52 1 -68 4 -8 17 -11 28 -9 15 4 17 2 8 -7 -7 -10 -6 -17 7 -27 17
-13 17 -13 4 4 -14 17 -13 18 5 15 11 -2 18 2 17 10 -2 7 8 12 23 12 16 0 24
-5 22 -12 -3 -7 -13 -13 -23 -13 -10 0 -20 -6 -23 -14 -3 -10 0 -12 11 -8 9 3
19 2 22 -4 4 -5 3 -9 -2 -8 -4 1 -14 1 -22 0 -19 -1 -4 -16 16 -16 9 0 17 -6
19 -13 1 -7 0 -8 -3 -2 -2 5 -9 10 -14 10 -6 0 -7 -6 -2 -12 10 -17 -94 73
-132 114 -16 18 -22 26 -13 19 17 -13 38 -8 38 9 0 5 -8 6 -17 3 -16 -6 -16
-5 -4 10 18 23 37 21 55 -5z m-4 -43 c11 -13 10 -14 -4 -9 -9 3 -16 10 -16 15
0 13 6 11 20 -6z m80 -1 c0 -2 -12 -4 -26 -4 -14 0 -23 4 -20 9 6 8 46 4 46
-5z m2649 -42 c54 -40 82 -106 32 -75 -17 11 -19 7 -23 -32 -3 -24 -15 -57
-27 -74 -12 -17 -19 -31 -15 -31 3 0 1 -7 -6 -15 -7 -8 -21 -15 -30 -15 -10 0
-20 -5 -22 -11 -5 -14 -78 -19 -101 -7 -46 24 -61 132 -28 197 24 45 39 59 88
77 46 17 99 11 132 -14z m-3532 -102 c12 -19 36 -48 53 -65 37 -35 85 -124 73
-135 -10 -11 -111 -29 -118 -22 -3 3 -5 24 -5 47 0 48 -30 96 -98 157 -23 21
-42 42 -42 47 0 5 15 18 33 30 17 11 38 30 46 43 14 22 14 21 25 -23 7 -25 21
-61 33 -79z m591 49 l33 -25 -50 -43 c-61 -50 -99 -112 -103 -164 -1 -21 -5
-40 -9 -43 -11 -7 -119 18 -119 28 0 20 32 68 94 143 43 52 68 92 72 115 9 48
12 52 32 32 9 -9 32 -29 50 -43z m493 24 c13 -16 12 -17 -3 -4 -10 7 -18 15
-18 17 0 8 8 3 21 -13z m-154 -66 c6 -4 13 -2 15 5 3 7 7 5 11 -6 4 -9 3 -15
-2 -11 -5 3 -11 -1 -14 -7 -3 -9 -11 -7 -27 9 -22 20 -11 27 17 10z m3333 -90
c0 -4 -31 -22 -70 -41 l-70 -33 0 79 0 78 70 -37 c38 -21 70 -41 70 -46z
m-3273 27 c19 -3 30 -14 13 -14 -10 0 -10 -3 0 -15 11 -13 15 -13 21 -3 5 8 8
5 6 -10 0 -12 -2 -22 -2 -22 0 0 -21 21 -45 47 -25 26 -37 41 -26 33 10 -8 25
-15 33 -16z m-3371 -5 c24 -11 52 -35 62 -52 23 -37 35 -94 23 -102 -5 -2 -12
-21 -15 -40 -4 -19 -11 -35 -17 -35 -5 0 -9 -8 -7 -17 2 -10 -3 -18 -12 -18
-8 -1 -14 -6 -13 -12 1 -6 -6 -9 -19 -5 -14 3 -19 1 -14 -6 12 -20 -45 -28
-59 -8 -14 18 -30 22 -19 4 5 -7 2 -9 -8 -5 -9 3 -21 0 -27 -6 -9 -9 -11 -8
-6 5 4 10 17 20 28 24 22 7 22 7 2 15 -28 11 -37 11 -30 -1 9 -15 -11 -12 -24
3 -6 8 -7 17 -3 21 4 4 -5 2 -20 -5 -15 -6 -25 -16 -22 -21 3 -5 13 -3 22 4
10 8 13 8 9 1 -4 -6 -2 -13 5 -15 8 -3 6 -7 -4 -11 -23 -8 -74 52 -88 103 -19
70 16 146 83 182 44 24 121 23 173 -3z m4488 0 c-10 -11 -28 -25 -39 -31 -11
-6 -4 4 15 20 41 36 51 41 24 11z m-2349 -56 c3 -20 20 -64 37 -96 33 -67 34
-65 -40 -94 -50 -19 -62 -11 -62 42 0 20 -14 49 -40 84 -22 29 -37 57 -34 62
7 12 60 -16 73 -38 7 -14 11 -9 21 27 7 25 14 48 17 53 9 14 21 -3 28 -40z
m1000 -9 l7 -46 27 26 c26 25 60 34 74 19 4 -3 -11 -25 -33 -49 -25 -27 -41
-56 -45 -81 -13 -78 -10 -75 -68 -52 -29 11 -56 24 -60 28 -5 5 7 39 26 77 19
38 37 81 41 97 10 41 23 33 31 -19z m510 36 c3 -5 1 -10 -4 -10 -6 0 -11 5
-11 10 0 6 2 10 4 10 3 0 8 -4 11 -10z m-4149 -37 c22 -17 25 -22 12 -23 -10
0 -18 -5 -18 -11 0 -5 4 -8 10 -4 5 3 5 -7 -1 -25 -14 -39 -39 -39 -68 0 -12
17 -26 28 -32 25 -5 -4 -9 -2 -9 4 0 5 19 8 45 5 48 -6 57 3 25 24 -11 7 -20
16 -20 21 0 14 24 7 56 -16z m5833 -21 l20 -39 -32 -46 c-36 -51 -53 -63 -73
-46 -9 8 -10 18 -3 37 12 34 61 132 65 132 2 0 12 -17 23 -38z m866 8 c8 -16
15 -35 15 -43 0 -24 -111 -121 -206 -179 -181 -112 -342 -178 -431 -178 -38 0
-38 1 -18 41 10 19 31 35 58 46 141 55 384 199 492 291 33 28 63 51 67 52 4 0
14 -13 23 -30z m-2745 -15 c13 -14 21 -25 18 -25 -2 0 -15 11 -28 25 -13 14
-21 25 -18 25 2 0 15 -11 28 -25z m-4070 5 c0 -5 -5 -10 -11 -10 -5 0 -7 5 -4
10 3 6 8 10 11 10 2 0 4 -4 4 -10z m4134 -57 c4 -5 12 -8 17 -8 5 0 9 -3 9 -7
0 -11 -12 -8 -35 8 -11 8 -15 14 -9 14 6 0 14 -3 18 -7z m86 -3 c0 -4 -7 -7
-15 -6 -23 3 -26 12 -5 13 11 1 20 -2 20 -7z m-8 -33 c-8 -9 -8 -20 1 -36 12
-25 43 -36 53 -20 3 5 10 9 15 9 6 0 7 -5 4 -10 -3 -6 1 -13 9 -16 9 -3 16
-12 16 -20 0 -8 6 -14 14 -14 22 0 30 -19 16 -35 -7 -8 -10 -15 -6 -15 3 0 9
0 13 0 4 0 8 7 9 16 3 22 11 28 19 15 3 -6 1 -11 -6 -11 -8 0 -7 -5 2 -17 10
-11 10 -14 2 -9 -7 4 -13 3 -13 -3 0 -5 5 -13 10 -16 6 -4 7 -11 4 -17 -4 -6
-48 31 -100 83 -88 88 -92 94 -77 111 18 20 31 25 15 5z m217 -10 c8 -10 7
-14 -2 -14 -8 0 -14 6 -14 14 0 7 1 13 2 13 2 0 8 -6 14 -13z m-128 -20 c-10
-9 -11 -8 -5 6 3 10 9 15 12 12 3 -3 0 -11 -7 -18z m-4361 -41 c0 -12 -5 -7
-19 24 -11 24 -11 24 3 6 9 -11 16 -24 16 -30z m4330 40 c0 -3 -4 -8 -10 -11
-5 -3 -10 -1 -10 4 0 6 5 11 10 11 6 0 10 -2 10 -4z m2975 -65 c44 -47 56 -65
45 -69 -8 -3 -40 -29 -70 -59 l-55 -55 -14 24 c-9 12 -32 39 -52 59 l-37 37
40 38 c22 22 47 51 56 67 9 15 19 26 22 25 3 -2 32 -32 65 -67z m-1521 45 c38
-16 73 -61 82 -103 6 -31 -27 -86 -43 -69 -4 5 -2 11 5 13 6 3 12 9 12 15 0 7
-5 6 -14 -1 -8 -7 -27 -14 -42 -17 -16 -3 -34 -10 -41 -15 -7 -7 -25 -8 -45
-3 -18 4 -37 8 -43 8 -18 1 -36 51 -31 84 6 39 20 58 61 84 36 22 55 22 99 4z
m-4787 -21 c26 -18 39 -84 23 -115 -14 -26 -68 -60 -97 -60 -12 0 -24 -6 -26
-12 -4 -9 -17 -1 -37 21 -29 30 -32 39 -27 78 5 45 27 79 62 94 32 13 79 10
102 -6z m227 -17 c-3 -5 -12 -4 -20 3 -7 6 -11 15 -8 21 3 5 12 4 20 -3 7 -6
11 -15 8 -21z m2216 -13 c285 -47 495 -170 825 -487 99 -95 315 -334 324 -359
9 -26 -482 -493 -656 -625 -217 -164 -429 -233 -673 -221 -370 19 -627 171
-1087 640 -95 97 -173 184 -173 193 0 19 41 64 235 264 337 347 548 501 770
565 164 46 281 54 435 30z m-4128 -12 c25 -23 23 -68 -4 -87 -51 -36 -106 -2
-99 61 4 39 70 56 103 26z m1031 -15 l21 -28 -21 -27 c-39 -54 -113 -34 -113
30 0 60 75 76 113 25z m2239 15 c10 -9 18 -22 18 -28 0 -7 -66 -72 -147 -146
-163 -147 -530 -511 -607 -602 -42 -49 -48 -61 -39 -80 6 -12 104 -118 218
-235 200 -205 369 -361 502 -466 67 -52 80 -74 63 -106 -12 -22 -49 -26 -83
-9 -23 12 -175 141 -287 243 -138 126 -581 559 -591 579 -12 22 -49 -16 422
437 229 220 385 364 443 408 34 26 63 28 88 5z m1556 -30 c179 -144 826 -747
839 -781 4 -10 -14 -34 -53 -71 -32 -30 -160 -153 -284 -272 -296 -285 -522
-490 -566 -513 -28 -15 -40 -16 -60 -8 -51 24 -33 51 114 180 203 178 662 643
662 670 0 14 -32 56 -88 114 -48 51 -99 106 -113 122 -46 54 -384 370 -491
459 -109 90 -126 115 -90 137 29 18 81 3 130 -37z m2912 27 c-21 -13 -60 -12
-60 1 0 6 9 9 19 6 10 -2 25 -1 32 4 7 4 16 6 18 3 3 -3 -1 -9 -9 -14z m-2483
-16 c-3 -3 -12 -4 -19 -1 -8 3 -5 6 6 6 11 1 17 -2 13 -5z m-77 -40 c0 -3 -7
-1 -15 6 -8 7 -15 17 -15 22 0 5 7 3 15 -6 8 -8 15 -18 15 -22z m145 16 c3 -5
1 -10 -4 -10 -6 0 -11 5 -11 10 0 6 2 10 4 10 3 0 8 -4 11 -10z m-3305 -29 c0
-5 8 -11 18 -13 11 -2 13 -6 6 -10 -6 -4 -19 1 -29 12 -10 12 -13 20 -7 20 7
0 12 -4 12 -9z m3148 -21 c3 -8 0 -10 -7 -5 -9 5 -9 1 1 -14 7 -12 20 -21 28
-20 10 0 11 2 3 6 -7 2 -13 9 -13 15 0 6 6 6 15 -2 8 -6 14 -15 13 -18 -3 -27
4 -43 16 -39 11 4 13 1 9 -10 -5 -13 -14 -8 -44 24 -21 23 -40 38 -43 35 -3
-3 -6 7 -6 22 0 28 20 32 28 6z m1735 8 c16 -12 15 -16 -14 -51 -26 -31 -29
-41 -18 -48 10 -6 11 -11 3 -19 -8 -8 -18 -3 -38 17 -31 31 -29 66 6 96 24 20
38 21 61 5z m558 -9 c19 -16 20 -19 6 -15 -11 4 -31 -3 -48 -15 -18 -12 -52
-23 -87 -26 l-57 -5 38 27 c40 28 94 54 113 55 7 0 22 -9 35 -21z m-1054 -55
c-10 -10 -16 -10 -31 0 -35 23 -31 36 8 24 27 -9 32 -14 23 -24z m-6083 -34
c-1 -19 -2 -281 -3 -582 l-1 -548 -75 0 -75 0 0 585 0 586 78 -3 77 -3 -1 -35z
m254 -547 l-3 -588 -70 0 -70 0 -3 588 -2 587 75 0 75 0 -2 -587z m262 -3 l0
-590 -74 0 c-56 0 -75 4 -80 15 -8 21 -8 1023 0 1101 l7 64 73 0 74 0 0 -590z
m4417 553 c-4 -3 0 -14 8 -23 13 -14 13 -17 0 -17 -8 0 -12 4 -9 8 2 4 0 10
-6 14 -10 6 -5 25 7 25 4 0 3 -3 0 -7z m40 -35 c-3 -7 -5 -2 -5 12 0 14 2 19
5 13 2 -7 2 -19 0 -25z m3 -28 c-13 -9 -7 -14 13 -11 4 0 7 -3 7 -9 0 -5 7
-10 15 -10 10 0 15 -7 13 -17 -2 -12 2 -17 12 -15 8 2 12 0 8 -4 -4 -4 -3 -13
3 -20 8 -10 16 -11 31 -3 15 8 19 8 14 0 -9 -14 6 -14 22 -1 9 7 9 7 2 -2 -15
-18 -12 -28 6 -21 11 4 23 -1 32 -13 10 -13 16 -15 19 -6 3 6 9 12 15 12 6 0
4 -8 -4 -17 -30 -35 -33 -47 -10 -41 18 5 19 3 10 -12 -10 -16 -13 -16 -30 -1
-10 9 -14 17 -8 19 15 5 12 22 -5 22 -9 0 -12 6 -9 15 4 8 1 15 -5 15 -6 0
-11 -9 -11 -21 0 -12 -4 -17 -11 -14 -6 4 -8 13 -5 20 3 8 -3 19 -12 27 -15
12 -16 11 -3 -4 29 -38 -4 -15 -65 44 -67 65 -75 78 -46 78 14 0 15 -2 2 -10z
m-5309 -21 c28 -28 23 -79 -12 -98 -62 -34 -120 49 -68 98 29 27 53 27 80 0z
m5370 3 c-7 -2 -18 1 -23 6 -8 8 -4 9 13 5 13 -4 18 -8 10 -11z m2713 -11 c25
-28 17 -72 -16 -91 -25 -13 -31 -13 -55 0 -54 30 -34 110 27 110 15 0 35 -9
44 -19z m-6294 -35 c0 -3 -30 -30 -67 -60 l-67 -56 -288 0 -287 0 4 35 c3 19
1 35 -4 35 -10 0 -21 36 -13 44 6 7 722 8 722 2z m6050 -53 l0 -58 -753 -3
-752 -2 -63 60 -63 60 816 0 815 0 0 -57z m-2307 20 c-7 -2 -19 -2 -25 0 -7 3
-2 5 12 5 14 0 19 -2 13 -5z m34 -35 c-3 -8 -6 -5 -6 6 -1 11 2 17 5 13 3 -3
4 -12 1 -19z m-30 -74 c-10 -11 13 -45 25 -38 7 5 8 2 3 -6 -6 -10 -12 -8 -27
9 -16 21 -17 41 -1 41 4 0 3 -3 0 -6z m-4302 -56 c-4 -13 -18 -34 -31 -49 -31
-33 -30 -43 9 -73 l32 -26 -132 0 -133 0 0 49 0 49 83 3 c76 4 86 7 123 36 46
38 58 41 49 11z m-1237 -4 c25 -17 31 -71 10 -92 -17 -17 -74 -15 -92 4 -35
35 -6 104 44 104 9 0 26 -7 38 -16z m7655 -21 l68 -32 -16 -25 c-17 -26 -49
-42 -75 -37 -8 1 4 -14 28 -34 57 -50 73 -84 79 -174 10 -137 -47 -220 -175
-257 -66 -20 -120 -13 -180 22 -33 20 -43 31 -39 45 3 10 1 17 -4 13 -5 -3 -9
4 -9 15 0 11 -4 23 -10 26 -5 3 -10 11 -10 16 0 6 12 -4 26 -21 82 -97 243
-91 311 12 31 46 42 132 23 178 -25 59 -116 120 -180 120 -59 0 -160 -63 -175
-109 -3 -10 -20 -24 -38 -32 -31 -14 -32 -16 -30 -70 2 -72 31 -134 88 -190
52 -52 45 -71 -14 -38 -58 32 -121 118 -154 209 -15 43 -4 -47 13 -102 16 -53
17 -65 6 -76 -11 -12 -18 -5 -42 44 -25 50 -29 73 -32 161 -4 91 -2 107 21
156 28 62 85 129 138 162 68 44 118 55 219 52 82 -2 104 -7 163 -34z m429 20
c20 -18 24 -73 6 -91 -15 -15 -63 -16 -89 -2 -28 15 -26 74 3 94 29 21 57 20
80 -1z m-2471 -25 c6 1 8 -2 5 -7 -8 -12 20 -34 33 -27 5 4 13 1 17 -5 4 -8 9
-7 16 2 7 10 8 8 3 -6 -11 -35 -11 -38 15 -52 16 -8 19 -13 9 -13 -19 0 -52
34 -42 43 3 4 0 7 -7 7 -17 0 -90 69 -90 85 0 5 8 1 16 -10 8 -11 20 -19 25
-17z m-4125 -18 l93 0 -53 -50 -53 -50 -71 0 -72 0 0 56 0 57 31 -7 c17 -3 73
-6 125 -6z m5194 -24 c0 -13 -3 -38 -6 -55 -6 -31 -7 -31 -68 -31 -61 0 -62 0
-116 55 l-54 55 122 0 c122 0 122 0 122 -24z m140 -21 c0 -38 -3 -45 -20 -45
-17 0 -20 7 -20 45 0 38 3 45 20 45 17 0 20 -7 20 -45z m292 18 c-39 -55 -73
-85 -88 -79 -9 3 -40 6 -70 6 l-54 0 0 50 0 50 116 0 115 0 -19 -27z m-1337
-73 c3 -5 2 -10 -4 -10 -5 0 -13 5 -16 10 -3 6 -2 10 4 10 5 0 13 -4 16 -10z
m-35 -21 c0 -5 3 -8 8 -6 4 1 8 -2 10 -8 2 -5 11 -18 19 -27 31 -35 6 -17 -32
23 -22 22 -32 37 -22 34 9 -4 17 -11 17 -16z m96 -57 c12 -8 15 -42 4 -42 -12
0 -40 36 -33 43 8 9 15 9 29 -1z m2242 -18 c45 -31 18 -114 -37 -114 -21 0
-61 40 -61 62 0 22 43 68 62 68 8 0 24 -7 36 -16z m-8072 -20 c36 -54 -23
-115 -81 -84 -57 30 -35 110 30 110 26 0 39 -6 51 -26z m5891 20 c-3 -3 -12
-4 -19 -1 -8 3 -5 6 6 6 11 1 17 -2 13 -5z m1634 -14 c22 -13 49 -61 49 -90 0
-39 -29 -79 -63 -88 -106 -28 -170 77 -93 154 35 35 70 43 107 24z m-1628 -7
c-7 -2 -21 -2 -30 0 -10 3 -4 5 12 5 17 0 24 -2 18 -5z m-4533 -20 c0 -5 -14
-16 -30 -25 -38 -22 -38 -33 0 -53 17 -9 30 -20 30 -25 0 -6 -58 -10 -145 -10
-144 0 -145 0 -145 23 0 12 -3 39 -6 60 l-7 37 152 0 c83 0 151 -3 151 -7z
m5640 -53 l0 -60 -180 0 c-105 0 -180 4 -180 9 0 5 14 20 31 32 l31 22 -31 19
c-17 11 -31 24 -31 29 0 5 80 9 180 9 l180 0 0 -60z m-4545 -328 c411 -407
1227 -1193 1463 -1408 l43 -39 -3 -141 -3 -142 -190 185 c-104 102 -323 312
-485 466 -162 154 -371 355 -465 446 -430 420 -804 781 -845 817 -24 21 -65
58 -90 81 l-45 43 155 0 155 0 310 -308z m3655 295 c0 -8 -15 -26 -32 -42
-211 -184 -840 -803 -831 -818 3 -6 1 -7 -5 -3 -14 8 -184 -153 -175 -167 3
-6 2 -7 -4 -4 -13 8 -166 -147 -156 -158 4 -4 3 -5 -3 -2 -15 8 -676 -642
-667 -656 3 -6 1 -7 -5 -3 -16 10 -207 -178 -197 -195 5 -8 4 -10 -3 -5 -8 5
-12 55 -12 161 l0 153 518 509 c909 894 1121 1101 1202 1173 l80 70 145 0
c114 0 145 -3 145 -13z m-6116 -139 c44 -63 -19 -126 -82 -82 -26 18 -29 60
-5 86 23 25 68 23 87 -4z m8078 5 c36 -32 11 -103 -36 -103 -56 0 -88 67 -50
104 20 21 63 20 86 -1z m-6852 -26 c0 -7 -17 -25 -37 -41 l-36 -30 36 -31 c32
-28 35 -34 22 -45 -12 -10 -15 -10 -15 3 0 9 -6 14 -13 11 -7 -2 -22 4 -32 16
-15 17 -30 20 -97 20 l-78 0 0 44 0 43 95 7 c52 3 105 10 117 15 26 10 38 6
38 -12z m308 -50 c23 -24 42 -47 42 -51 0 -3 -56 -6 -125 -6 l-125 0 -1 40
c-1 22 -2 46 -3 53 -1 14 129 27 154 15 8 -4 34 -27 58 -51z m5124 53 c17 0
19 -6 16 -52 l-3 -53 -127 -3 c-71 -1 -128 1 -128 5 0 4 24 32 53 61 l52 54
59 -6 c32 -3 68 -6 78 -6z m156 -29 c5 -35 -7 -71 -23 -71 -11 0 -15 12 -15
49 0 41 3 49 18 47 9 -2 18 -13 20 -25z m239 -26 l32 -55 -94 0 -95 0 0 55 0
55 63 0 62 0 32 -55z m-1002 -85 c3 -5 2 -10 -4 -10 -5 0 -13 5 -16 10 -3 6
-2 10 4 10 5 0 13 -4 16 -10z m-52 -48 c4 9 6 9 6 1 2 -20 -16 -24 -30 -5 -13
15 -12 16 3 4 13 -10 17 -10 21 0z m-5999 -28 c9 -8 16 -29 16 -44 0 -35 -38
-65 -69 -55 -73 23 -65 115 9 115 16 0 36 -7 44 -16z m8078 -1 c39 -35 12 -96
-42 -96 -36 0 -60 23 -60 59 0 49 64 72 102 37z m-6313 -74 l53 -59 -371 0
-371 0 0 24 c0 14 -5 37 -10 51 -6 15 -8 31 -4 36 3 5 142 9 327 8 l322 0 54
-60z m5518 19 c27 -24 60 -51 73 -60 24 -16 -7 -17 -567 -17 -326 -1 -593 1
-593 3 0 2 26 29 57 60 l56 56 463 0 463 0 48 -42z m-7268 -206 c20 -20 41
-45 46 -55 7 -12 24 -19 52 -20 36 -2 43 1 48 20 l5 23 787 0 786 0 -56 -56
-56 -55 -782 2 -783 2 -8 -24 c-27 -72 -89 -111 -153 -95 -32 8 -37 56 -6 56
11 0 33 12 50 26 23 19 31 34 31 59 0 37 -16 54 -73 75 -49 18 -55 32 -28 59
15 15 34 21 62 21 35 0 47 -6 78 -38z m8099 22 c14 -10 22 -26 22 -44 0 -27
-3 -29 -42 -32 -35 -3 -45 -8 -61 -35 -29 -51 -2 -103 54 -103 28 0 30 -2 27
-32 -3 -28 -7 -34 -32 -36 -53 -6 -107 29 -140 92 l-14 29 -786 -2 -786 -2
-55 47 c-30 26 -55 51 -55 56 0 4 358 8 796 8 791 0 796 0 791 -20 -5 -18 0
-20 42 -20 41 0 49 3 65 30 32 55 67 80 111 80 22 0 51 -7 63 -16z m-2368 -17
c0 -2 -12 -14 -27 -28 l-28 -24 24 28 c23 25 31 32 31 24z m-77 -72 c-3 -9 -8
-14 -10 -11 -3 3 -2 9 2 15 9 16 15 13 8 -4z m-33 -31 c-8 -8 -23 -20 -34 -25
-19 -9 -19 -9 -4 4 10 8 14 18 10 22 -4 5 -2 5 5 1 6 -3 14 -2 18 4 3 5 9 10
12 10 3 0 0 -7 -7 -16z m-3534 -41 l35 -37 -98 -97 -98 -98 -55 -1 c-30 -2
-70 -2 -87 -1 l-33 1 0 55 0 55 61 0 61 0 86 80 c48 44 88 80 90 80 2 0 19
-17 38 -37z m3904 -38 c47 -41 91 -74 98 -75 6 0 12 -5 12 -11 0 -6 22 -9 58
-8 39 2 57 -1 56 -9 -1 -7 -2 -32 -2 -57 l-2 -45 -82 0 c-81 1 -84 1 -121 36
-21 19 -35 39 -32 44 3 6 0 7 -7 5 -8 -3 -27 9 -43 26 -17 18 -23 28 -15 23 8
-4 23 -10 33 -11 15 -3 17 1 11 19 -6 21 -5 21 10 9 9 -8 15 -20 12 -27 -3 -7
0 -16 6 -20 7 -5 8 -2 3 6 -6 10 -4 12 11 6 14 -5 11 1 -10 23 -16 17 -33 28
-37 25 -4 -2 -10 5 -14 16 -4 12 -11 17 -18 14 -7 -4 -9 -3 -4 1 4 5 -5 21
-19 36 -25 26 -26 49 -1 49 7 0 50 -34 97 -75z m-461 -11 c-41 -42 -64 -59
-40 -30 7 8 8 16 4 18 -4 3 -3 4 3 2 7 -1 22 8 35 22 12 13 19 24 15 24 -4 0
-4 5 -1 10 4 6 11 7 17 4 5 -4 -9 -25 -33 -50z m-2015 -38 l53 -24 -38 -77
c-22 -43 -39 -87 -39 -99 0 -25 -15 -52 -22 -40 -3 5 -8 26 -12 47 -4 20 -8
37 -10 37 -2 0 -17 -7 -35 -16 -17 -9 -38 -13 -46 -10 -22 8 -18 34 5 41 29 9
57 54 65 105 8 46 12 60 21 60 3 0 29 -11 58 -24z m996 -1 c0 -7 5 -36 11 -64
8 -39 17 -54 45 -73 57 -39 38 -74 -22 -39 -43 26 -44 26 -44 2 0 -11 -5 -32
-11 -48 -11 -27 -11 -27 -31 37 -11 36 -24 70 -29 76 -5 6 -16 27 -24 48 l-16
37 43 19 c52 23 78 25 78 5z m-2935 -11 c43 -17 60 -119 25 -154 -29 -29 -84
-27 -115 5 -14 13 -25 29 -25 35 0 13 -236 14 -245 0 -18 -29 -85 5 -85 43 0
47 71 77 100 42 10 -12 36 -15 118 -15 99 0 106 1 128 25 23 25 63 32 99 19z
m4903 -19 c28 -23 37 -25 135 -25 81 0 107 3 117 15 17 20 59 19 82 -2 24 -21
23 -55 -2 -78 -16 -14 -24 -15 -51 -6 -18 6 -83 11 -146 11 l-114 0 -10 -29
c-7 -19 -21 -33 -41 -40 -82 -29 -145 86 -83 153 31 34 74 34 113 1z m-5575
-2 l27 -5 0 -365 0 -364 -34 5 c-19 3 -38 1 -41 -4 -4 -6 -137 -10 -356 -10
l-349 0 0 368 c0 203 3 372 7 376 8 8 704 7 746 -1z m6917 -93 l0 -90 -31 0
c-22 0 -40 -9 -59 -30 -36 -39 -66 -40 -72 -2 -4 26 -1 29 24 29 66 0 94 87
35 107 -35 13 -56 1 -78 -41 -11 -23 -19 -29 -30 -22 -48 30 -96 -14 -85 -79
5 -36 3 -40 -38 -74 l-43 -37 -42 43 c-36 37 -40 46 -35 74 13 63 -44 105 -88
65 -17 -15 -18 -14 -18 21 0 29 -5 39 -25 48 -58 26 -121 -37 -80 -82 11 -12
31 -20 52 -20 26 0 33 -4 33 -19 0 -23 -15 -30 -56 -24 -26 4 -32 1 -37 -18
-10 -38 -8 -48 13 -69 25 -25 66 -25 108 0 l33 20 47 -45 47 -46 -54 -49 -54
-49 -34 29 c-38 34 -42 35 -77 19 -26 -12 -40 -47 -30 -73 6 -16 11 -18 54
-20 15 -1 26 -8 28 -18 3 -14 -6 -19 -38 -24 -47 -8 -68 -40 -50 -74 25 -47
88 -41 100 9 7 30 28 39 36 17 21 -54 94 -32 94 27 0 18 -5 38 -11 44 -9 9 1
25 38 64 l50 52 48 -45 c41 -40 46 -48 36 -66 -16 -29 -14 -87 3 -102 23 -19
59 -8 74 23 17 34 32 35 32 0 0 -60 63 -83 99 -36 35 43 15 82 -45 92 -21 3
-39 12 -42 19 -6 18 27 27 59 15 21 -8 31 -8 39 1 5 7 6 17 2 21 -4 5 -1 5 6
1 7 -4 15 0 19 11 3 10 15 26 25 36 18 18 18 15 16 -130 l-3 -148 -392 -3
-393 -2 0 370 0 370 395 0 395 0 0 -90z m-2380 77 c0 -12 -130 -125 -135 -117
-4 6 -3 9 2 8 11 -3 68 54 65 65 -1 5 1 6 6 3 5 -3 20 6 32 19 22 23 30 29 30
22z m-1594 -42 l35 -15 -18 -31 c-10 -17 -42 -59 -72 -92 -56 -65 -90 -127
-91 -164 0 -13 -2 -23 -4 -23 -2 0 -26 20 -52 45 l-49 45 52 45 c58 51 93 114
93 168 0 36 1 37 35 37 20 0 52 -7 71 -15z m366 -38 c8 -58 23 -82 93 -151
l54 -53 -47 -34 c-61 -44 -62 -45 -62 -17 0 34 -28 84 -91 163 -78 97 -86 115
-63 132 11 8 37 13 64 11 l45 -3 7 -48z m-1910 -17 l27 -39 -137 -131 -137
-132 -322 1 -321 2 -23 -37 c-29 -48 -95 -78 -149 -69 -146 25 -191 210 -68
284 72 44 143 34 203 -29 l29 -30 303 0 304 0 120 110 c66 61 125 110 132 110
7 -1 24 -18 39 -40z m3412 16 c17 -13 74 -62 126 -110 l94 -86 312 0 312 0 39
39 c64 64 154 66 221 3 88 -82 53 -230 -62 -262 -69 -19 -113 -6 -166 48 l-44
47 -266 2 c-146 1 -294 2 -329 3 l-64 0 -133 137 c-97 100 -129 139 -118 143
9 3 14 8 13 10 -3 6 24 50 30 50 2 0 18 -11 35 -24z m-477 -88 c-3 -8 -6 -5
-6 6 -1 11 2 17 5 13 3 -3 4 -12 1 -19z m-1192 -91 c34 -16 55 -39 55 -59 0
-11 -4 -16 -10 -13 -5 3 -10 -3 -10 -15 0 -52 -66 -127 -146 -165 l-49 -24
-28 27 c-103 99 -5 288 138 264 17 -3 39 -9 50 -15z m1122 10 c0 -8 -6 -14
-14 -14 -17 0 -17 14 0 20 6 3 12 6 13 6 0 1 1 -5 1 -12z m2588 -145 c-5 -29
-9 -32 -28 -25 -38 13 -80 4 -105 -21 l-25 -24 -51 50 -50 50 49 42 c41 36 51
41 63 30 7 -8 25 -17 40 -20 15 -3 33 -8 40 -10 13 -4 61 40 64 60 1 6 3 -14
5 -44 3 -30 1 -70 -2 -88z m-5245 94 c0 -7 11 -23 24 -35 l23 -22 -114 -112
c-64 -62 -119 -121 -123 -133 -4 -11 -6 -69 -3 -128 l6 -109 129 -129 128
-128 0 -180 0 -180 -50 0 -50 0 0 150 0 151 -131 137 -132 138 2 174 c2 204
-15 168 165 331 101 92 126 107 126 75z m2604 -17 c-21 -21 -40 -37 -42 -34
-3 2 10 16 27 31 17 14 29 29 26 33 -2 4 3 8 11 8 9 0 1 -15 -22 -38z m481
-89 l135 -124 0 -181 -1 -180 -124 -130 -124 -130 -1 -151 0 -152 -47 -4 c-27
-3 -51 -3 -55 -1 -5 2 -8 86 -8 185 l0 181 131 131 130 130 -3 133 c-2 97 -7
136 -17 145 -12 11 -13 10 -6 -2 5 -9 0 -8 -14 4 -12 11 -20 25 -17 32 3 7 0
11 -7 8 -7 -2 -29 13 -49 33 -34 35 -36 39 -22 58 15 19 15 19 9 -6 -8 -32 20
-63 31 -34 6 15 9 14 30 -7 32 -33 54 -50 54 -43 0 12 -83 84 -92 79 -4 -3 -5
-10 -2 -16 4 -7 2 -8 -5 -4 -8 5 -9 12 -2 20 8 9 1 22 -25 47 -19 19 -41 47
-50 62 -14 27 -11 51 7 45 4 -2 69 -59 144 -128z m-106 21 c3 -1 -4 -8 -15
-16 -19 -15 -19 -15 1 -9 16 5 17 4 5 -4 -17 -12 -30 -7 -30 13 0 7 -10 16
-22 18 -18 4 38 1 61 -2z m-534 -81 c-10 -11 -21 -18 -23 -15 -3 3 3 12 14 20
27 20 30 18 9 -5z m-2180 -31 c62 -16 129 -77 149 -136 9 -25 14 -49 11 -51
-3 -3 -5 -1 -5 5 0 5 -7 10 -15 10 -9 0 -14 -6 -11 -14 3 -7 2 -13 -2 -13 -4
0 -20 -21 -37 -46 -49 -74 -141 -115 -212 -95 -25 7 -35 6 -45 -7 -7 -9 -8
-13 -3 -11 6 3 18 -2 28 -13 23 -24 6 -23 -27 3 -91 72 -105 225 -27 313 19
22 66 47 106 57 43 10 42 10 90 -2z m2489 0 c42 -12 136 -97 136 -124 0 -22
-45 -19 -67 5 -18 19 -19 18 -16 -41 3 -72 -8 -105 -49 -141 -36 -32 -43 -34
-34 -13 4 12 1 12 -22 -2 -15 -10 -29 -20 -32 -23 -15 -18 -43 -18 -73 0 -40
25 -50 25 -37 1 16 -31 12 -36 -11 -15 -80 71 -76 228 9 307 53 50 123 66 196
46z m-369 -29 c-16 -16 -32 -30 -37 -30 -4 0 6 14 24 30 17 17 33 30 36 30 3
0 -7 -13 -23 -30z m-3191 -51 c42 -28 73 -81 80 -135 6 -44 -14 -110 -32 -107
-6 2 -9 -4 -6 -11 8 -21 -63 -65 -118 -72 -131 -18 -240 134 -180 252 23 45
56 78 92 93 41 18 124 7 164 -20z m3052 -88 c-53 -52 -99 -91 -104 -86 -4 4
-2 10 5 12 29 11 76 61 70 76 -3 9 -1 19 5 23 6 4 8 3 4 -4 -3 -6 -2 -13 4
-17 9 -6 14 8 11 28 -1 5 3 6 8 2 15 -9 69 47 65 68 -2 15 0 16 13 6 13 -11 1
-27 -81 -108z m1255 -21 c0 -52 4 -121 8 -152 l7 -58 -43 -42 -43 -42 0 217 0
217 35 -22 35 -23 1 -95z m424 110 c52 -32 90 -114 81 -175 -14 -91 -89 -155
-182 -155 -59 0 -105 26 -141 79 -108 160 78 352 242 251z m-4426 -270 l1
-125 -35 36 -36 35 -4 155 -4 156 32 15 32 15 7 -81 c3 -44 6 -137 7 -206z
m2628 268 c-3 -8 -6 -5 -6 6 -1 11 2 17 5 13 3 -3 4 -12 1 -19z m-3406 -26
c28 -24 31 -79 4 -98 -46 -34 -105 -4 -105 52 0 56 56 81 101 46z m5577 2 c32
-22 30 -76 -5 -103 -30 -24 -58 -20 -85 11 -25 28 -22 55 7 83 28 29 51 31 83
9z m-2178 2 c0 -3 -4 -8 -10 -11 -5 -3 -10 -1 -10 4 0 6 5 11 10 11 6 0 10 -2
10 -4z m-3579 -193 c107 -34 199 -159 199 -270 0 -31 -2 -34 -27 -31 -21 2
-38 19 -71 66 -73 104 -150 139 -232 106 -45 -19 -68 -41 -91 -86 -40 -79 -14
-167 61 -205 54 -28 82 -28 137 -3 48 21 80 66 90 124 l6 38 13 -32 c25 -59
16 -99 -34 -153 -26 -28 -104 -57 -151 -57 -61 0 -155 63 -229 154 -17 22 -25
26 -36 17 -30 -25 -26 122 5 182 25 47 62 87 108 116 79 51 163 62 252 34z
m6032 -3 c74 -23 154 -87 181 -145 21 -44 36 -129 25 -146 -5 -8 -30 10 -78
57 -81 78 -127 103 -190 104 -96 0 -182 -92 -166 -178 13 -71 83 -132 152
-132 39 0 103 39 130 79 17 25 23 48 23 88 0 51 1 53 21 41 18 -11 20 -21 17
-75 -4 -69 -20 -97 -82 -147 -35 -29 -44 -31 -114 -31 -97 1 -138 21 -210 104
-31 35 -62 61 -73 61 -16 0 -19 7 -19 54 0 100 44 181 129 235 82 53 155 62
254 31z m-2473 -10 c-12 -22 -25 -26 -36 -8 -4 7 -3 8 5 4 6 -4 14 0 17 8 3 9
10 16 15 16 6 0 5 -9 -1 -20z m-36 -29 c3 -5 -11 -21 -32 -37 -23 -17 -31 -20
-19 -8 9 12 14 24 10 29 -5 4 -2 5 5 1 18 -10 38 4 21 15 -10 6 -10 9 -2 9 6
0 14 -4 17 -9z m-1857 -67 c-3 -3 -12 -4 -19 -1 -8 3 -5 6 6 6 11 1 17 -2 13
-5z m411 -164 l-92 -100 -68 0 -68 0 0 -305 0 -305 -50 0 -50 0 0 360 0 360
88 0 87 0 88 80 88 81 35 -36 35 -36 -93 -99z m1772 90 l88 -80 81 0 81 0 0
-360 0 -360 -50 0 -50 0 -1 183 c-1 100 -2 236 -3 302 l-1 120 -57 3 c-50 3
-60 7 -83 34 -14 17 -24 36 -22 42 5 16 53 14 49 -2 -1 -8 2 -11 9 -6 7 4 -17
35 -65 83 -41 42 -79 79 -82 83 -7 8 2 38 12 38 3 0 46 -36 94 -80z m-4410 10
c11 -52 11 -63 -4 -84 -18 -28 -52 -50 -65 -42 -5 3 -12 26 -15 50 -6 40 -10
44 -33 43 -44 -3 -36 18 17 43 28 13 56 30 62 37 18 23 25 15 38 -47z m3990
36 c0 -2 -8 -10 -17 -17 -16 -13 -17 -12 -4 4 13 16 21 21 21 13z m3087 -28
c31 -29 30 -71 -3 -97 -51 -40 -117 -13 -117 47 0 66 72 96 120 50z m-3127
-12 c0 -2 -8 -10 -17 -17 -16 -13 -17 -12 -4 4 13 16 21 21 21 13z m-2539 -29
c104 -70 108 -215 7 -277 -67 -41 -182 -10 -222 59 -28 48 -28 130 0 168 55
74 147 96 215 50z m4309 1 c54 -37 73 -70 73 -130 1 -88 -49 -152 -127 -165
-69 -11 -130 25 -168 100 -50 98 28 217 142 217 32 0 57 -7 80 -22z m-4720
-38 c40 -40 15 -110 -39 -110 -68 0 -96 69 -45 109 33 26 58 27 84 1z m5052 3
c28 -25 24 -77 -9 -102 -41 -33 -95 -8 -95 43 0 63 61 98 104 59z m-2182 -18
c-13 -14 -27 -25 -32 -25 -9 0 42 49 51 50 3 0 -6 -11 -19 -25z m511 -2 c13
-15 12 -15 -8 -4 -24 12 -29 21 -14 21 5 0 15 -7 22 -17z m-771 -49 c0 -8 -4
-14 -9 -14 -6 0 -9 9 -8 19 1 22 17 18 17 -5z m220 13 c0 -2 -17 -19 -37 -38
l-38 -34 34 38 c33 34 41 42 41 34z m-937 -24 c4 -10 16 -30 28 -45 l22 -27
-107 -105 c-85 -85 -112 -106 -135 -106 -16 0 -34 -6 -40 -13 -14 -18 2 -74
30 -100 19 -18 20 -28 17 -141 l-3 -121 -52 -3 -53 -3 0 196 c0 118 4 205 11
218 10 22 258 266 270 267 4 0 9 -8 12 -17z m678 -20 c-12 -20 -14 -14 -5 12
4 9 9 14 11 11 3 -2 0 -13 -6 -23z m687 -120 l112 -105 0 -209 0 -210 -52 3
-53 3 0 143 c0 114 3 145 15 152 12 7 11 12 -5 31 -18 20 -18 22 -2 16 30 -11
18 10 -28 47 -49 41 -58 61 -22 51 19 -5 20 -5 4 5 -9 6 -26 9 -36 5 -11 -3
-22 -1 -26 4 -3 7 0 8 9 5 9 -3 16 -1 16 5 0 6 -6 11 -12 11 -9 0 -8 4 2 10 8
5 11 10 5 10 -5 0 -26 14 -45 32 -19 17 -27 28 -17 25 24 -9 22 -2 -14 43 -20
24 -29 45 -25 55 8 21 20 11 174 -132z m-588 127 c0 -5 -5 -10 -11 -10 -5 0
-7 5 -4 10 3 6 8 10 11 10 2 0 4 -4 4 -10z m-2923 -32 c-3 -7 -5 -2 -5 12 0
14 2 19 5 13 2 -7 2 -19 0 -25z m5487 16 c3 -8 2 -12 -4 -9 -6 3 -10 10 -10
16 0 14 7 11 14 -7z m-2642 -16 c-7 -7 -12 -8 -12 -2 0 14 12 26 19 19 2 -3
-1 -11 -7 -17z m-78 -18 c-4 -29 8 -40 21 -20 4 6 10 8 15 5 5 -3 11 3 13 12
4 15 6 15 12 -4 4 -13 12 -20 17 -17 5 3 8 -2 6 -11 -2 -10 3 -20 10 -22 6 -3
12 0 12 6 0 6 7 11 15 11 21 0 19 -16 -5 -33 -11 -8 -17 -17 -14 -20 9 -9 44
16 44 30 0 7 4 13 9 13 5 0 16 6 23 13 71 65 39 27 -67 -80 -123 -125 -130
-131 -148 -115 -15 13 -16 17 -4 22 11 4 15 28 16 104 2 85 11 136 25 136 2 0
2 -13 0 -30z m-1758 -11 c58 -28 88 -78 88 -146 0 -62 -21 -97 -80 -130 -72
-41 -154 -27 -208 37 -53 64 -23 200 54 241 45 25 93 24 146 -2z m3619 -2
c105 -59 111 -223 10 -283 l-43 -25 -1 -159 -2 -158 65 -22 c112 -37 171 -122
171 -245 0 -55 -3 -69 -14 -67 -12 3 -12 0 -2 -12 10 -12 8 -22 -12 -53 -48
-74 -133 -131 -206 -136 -15 -1 -34 -8 -42 -16 -11 -12 -9 -13 14 -7 l27 6 0
-90 c0 -65 -3 -90 -12 -90 -8 0 -9 -3 -3 -8 6 -4 10 -25 10 -47 0 -33 -6 -45
-38 -74 -25 -22 -36 -40 -32 -50 5 -14 4 -14 -11 1 -23 22 -21 65 5 92 19 20
21 33 21 153 0 107 -3 132 -15 137 -8 3 -21 3 -29 0 -19 -7 -85 35 -125 82
-19 21 -45 62 -58 92 l-23 53 -214 -3 -214 -3 -68 53 -68 52 -963 0 c-1035 0
-991 2 -1038 -50 -42 -47 -62 -50 -284 -50 -206 0 -209 0 -204 21 4 14 0 22
-14 25 -11 3 -27 19 -37 35 -28 48 -28 29 1 -41 14 -36 26 -78 26 -93 0 -56
-102 -166 -159 -170 -16 -1 -32 -6 -36 -12 -11 -14 -10 -259 1 -288 8 -22 6
-25 -22 -34 -63 -18 -62 -19 -59 155 l4 157 -51 18 c-67 23 -129 73 -155 122
-28 55 -34 171 -12 230 23 59 86 121 153 152 101 46 222 19 296 -68 20 -23 44
-61 54 -85 l18 -44 155 0 154 0 78 61 c43 33 94 67 113 75 29 12 186 14 1015
14 l981 0 42 -21 c23 -12 71 -45 107 -73 l64 -51 173 -3 c162 -3 173 -2 173
15 0 10 13 41 30 69 31 56 97 106 162 126 l38 11 0 156 0 156 -42 20 c-58 28
-88 75 -88 136 0 56 13 95 43 128 49 53 127 65 192 28z m-5155 -18 c0 -6 -4
-7 -10 -4 -5 3 -10 11 -10 16 0 6 5 7 10 4 6 -3 10 -11 10 -16z m424 -45 c5
-13 4 -14 -7 -6 -8 7 -18 8 -22 4 -5 -4 -5 -1 -1 6 10 17 23 15 30 -4z m-554
-34 c22 -22 27 -79 8 -98 -17 -17 -68 -15 -90 5 -32 28 -19 91 22 106 27 10
40 7 60 -13z m573 -14 c-70 -62 -116 -79 -205 -74 -47 3 -84 10 -91 18 -10 10
-9 12 5 7 10 -4 21 0 25 8 6 9 33 16 78 20 39 4 71 10 73 15 2 6 19 3 39 -5
42 -18 46 -18 38 -5 -3 6 -2 10 3 10 5 0 19 9 32 20 13 11 27 20 32 20 4 0 -9
-15 -29 -34z m6326 -11 c12 -25 12 -32 0 -54 -30 -54 -119 -32 -119 29 0 70
88 89 119 25z m-3897 -37 c-15 -15 -16 -32 -1 -22 8 4 8 0 0 -15 -7 -11 -10
-21 -9 -22 34 -9 57 8 43 32 -4 5 1 6 9 3 22 -9 12 -23 -65 -93 l-71 -65 4
-117 3 -117 -45 -5 c-25 -2 -48 -2 -52 0 -5 2 -8 68 -8 146 l0 142 87 87 c77
78 89 86 102 73 12 -12 13 -17 3 -27z m894 -45 l84 -77 0 -153 c0 -170 4 -161
-69 -147 l-31 7 0 106 c0 63 4 111 11 118 6 6 12 23 14 39 2 23 -6 36 -41 67
-58 51 -93 117 -63 117 6 0 48 -35 95 -77z m-3636 57 c0 -5 -7 -7 -15 -4 -8 4
-15 8 -15 10 0 2 7 4 15 4 8 0 15 -4 15 -10z m5850 -8 c20 -16 23 -31 29 -114
5 -81 10 -100 29 -120 20 -22 22 -34 22 -137 0 -106 -2 -115 -25 -143 -23 -27
-25 -38 -25 -118 0 -122 4 -120 -212 -120 -192 0 -165 -14 -249 129 -49 85
-54 113 -22 125 24 9 36 -6 82 -104 l43 -90 144 0 144 0 0 80 c0 74 2 82 30
113 29 33 30 39 30 125 0 86 -2 93 -28 124 -26 30 -29 41 -31 112 -1 44 -3 81
-4 83 -2 1 -67 4 -145 5 -113 2 -145 -1 -157 -12 -8 -8 -21 -46 -29 -84 -10
-51 -22 -76 -44 -99 l-30 -30 -17 27 c-17 26 -17 28 8 79 14 29 31 69 37 90 6
21 23 51 37 67 l25 30 168 0 c147 0 171 -2 190 -18z m-2753 -6 c0 -8 -6 -12
-15 -9 -11 5 -11 7 0 14 7 5 13 9 14 9 0 0 1 -6 1 -14z m-2489 -41 c17 -21 19
-31 11 -60 -9 -32 -7 -39 31 -86 43 -55 59 -94 43 -110 -7 -7 -26 12 -57 55
-25 36 -49 71 -52 79 -3 8 -18 17 -33 20 -16 4 -32 16 -39 32 -16 34 -15 38 9
69 26 33 62 34 87 1z m347 0 c14 -13 25 -32 25 -42 0 -26 -27 -61 -49 -65 -11
-2 -44 -37 -73 -78 -32 -43 -61 -74 -69 -72 -8 2 -4 -5 8 -17 12 -12 20 -27
17 -35 -6 -17 12 -31 21 -16 3 5 39 10 78 10 61 0 74 3 85 20 25 40 82 13 82
-39 0 -15 -5 -32 -12 -39 -17 -17 -57 -15 -64 3 -5 12 -25 15 -95 15 -51 0
-89 -4 -89 -10 0 -12 -53 -40 -75 -40 -25 0 -65 46 -65 74 0 27 34 66 59 67 9
0 43 41 75 90 52 78 58 93 48 110 -17 27 -15 46 8 69 27 27 56 25 85 -5z
m2636 -92 c-12 -20 -14 -14 -5 12 4 9 9 14 11 11 3 -2 0 -13 -6 -23z m-676 -9
c9 -15 19 -34 20 -43 2 -9 4 -16 5 -16 2 0 3 -117 2 -166 -2 -41 -5 -47 -26
-51 -23 -5 -24 -3 -28 71 -4 70 1 231 7 231 2 0 10 -12 20 -26z m456 3 c-10
-9 -11 -8 -5 6 3 10 9 15 12 12 3 -3 0 -11 -7 -18z m2349 -39 c0 -45 4 -57 32
-85 28 -29 33 -41 36 -96 3 -59 2 -64 -32 -102 -31 -35 -36 -47 -36 -92 l0
-53 -74 0 c-58 0 -75 3 -80 16 -12 32 -5 54 22 71 86 53 122 119 103 191 -12
42 -61 95 -103 111 -24 9 -28 16 -28 51 l0 40 80 0 80 0 0 -52z m-2080 16 c0
-8 -19 -13 -24 -6 -3 5 1 9 9 9 8 0 15 -2 15 -3z m2610 -32 c36 -45 23 -100
-30 -122 -52 -22 -110 14 -110 69 0 80 92 115 140 53z m-6122 -75 l-53 -63
-37 56 c-21 30 -38 58 -38 63 0 4 41 7 90 7 l90 0 -52 -63z m4487 7 c11 -20
37 -48 58 -62 l38 -25 -40 -24 c-22 -13 -49 -39 -61 -58 l-22 -35 -28 38 c-15
21 -39 48 -53 59 l-26 20 30 29 c17 16 39 44 51 62 11 17 23 32 27 32 3 0 15
-16 26 -36z m714 -40 l50 -56 55 6 c44 6 56 11 56 25 0 37 54 58 67 25 3 -8
16 -20 29 -25 18 -6 24 -16 24 -40 0 -25 -6 -33 -30 -42 -18 -7 -30 -19 -30
-29 0 -27 -35 -22 -54 7 -14 21 -24 25 -70 25 -53 0 -54 -1 -139 -80 l-85 -80
-22 30 -22 31 73 69 74 68 -43 45 -44 45 23 16 c13 9 27 16 30 16 4 0 30 -25
58 -56z m-3585 4 c20 -28 21 -82 2 -97 -27 -23 -64 -23 -87 0 -21 21 -30 21
-268 23 l-246 1 -3 38 -3 37 255 0 c159 0 257 4 261 10 12 20 73 11 89 -12z
m1553 -90 c-2 -18 -4 -4 -4 32 0 36 2 50 4 33 2 -18 2 -48 0 -65z m-2832 52
c14 -15 33 -20 94 -22 63 -3 76 -6 79 -20 3 -16 -6 -18 -75 -18 -67 0 -80 -3
-91 -20 -18 -30 -77 -27 -98 5 -39 60 43 128 91 75z m2915 -60 c0 -11 -4 -20
-9 -20 -5 0 -7 9 -4 20 3 11 7 20 9 20 2 0 4 -9 4 -20z m-3156 -67 l47 -68
-51 -3 c-27 -2 -73 -2 -100 0 l-51 3 47 68 c25 37 50 67 54 67 4 0 29 -30 54
-67z m5960 -2 c25 -27 17 -72 -15 -90 -24 -13 -29 -13 -53 2 -47 31 -27 107
28 107 13 0 31 -9 40 -19z m-5480 -22 c-1 -8 -23 -46 -51 -84 -44 -63 -48 -72
-37 -94 25 -48 -24 -101 -73 -78 -45 20 -43 98 3 119 15 7 49 45 76 86 34 50
55 72 66 70 9 -2 17 -11 16 -19z m155 -63 c22 -33 52 -64 72 -74 27 -13 35
-24 37 -50 6 -63 -53 -98 -94 -57 -26 26 -30 46 -14 76 9 15 4 29 -23 71 -19
29 -43 61 -55 71 -11 11 -18 25 -15 33 9 24 50 -7 92 -70z m-476 -108 c28 -22
32 -73 8 -97 -28 -28 -46 -27 -77 4 -29 29 -26 58 8 88 24 20 38 21 61 5z
m527 -203 c49 -26 73 -62 78 -119 3 -43 0 -62 -18 -95 -21 -36 -40 -46 -40
-20 0 6 4 8 9 5 11 -7 20 14 13 32 -3 10 -8 7 -19 -8 -12 -17 -18 -19 -29 -9
-12 10 -15 10 -12 -1 2 -8 -3 -15 -9 -16 -7 -1 -15 -3 -18 -4 -13 -7 -31 -5
-42 3 -7 5 -18 5 -24 1 -7 -4 -9 -3 -6 3 4 6 -1 17 -10 24 -14 12 -15 11 -9
-9 6 -17 3 -22 -11 -22 -13 0 -15 2 -5 9 10 6 10 10 -3 21 -8 7 -18 10 -22 6
-3 -3 -2 -6 4 -6 6 0 9 -9 6 -20 -5 -20 4 -25 36 -21 7 2 10 -2 7 -7 -7 -11
16 -22 45 -22 10 0 19 -5 19 -10 0 -24 -93 15 -124 51 -44 52 -57 119 -32 167
43 82 132 109 216 67z m4630 1 c106 -56 113 -187 14 -262 -29 -22 -47 -28 -89
-28 -58 -1 -91 17 -129 68 -31 41 -29 139 3 185 45 63 125 78 201 37z m-3221
-138 c36 -107 117 -328 124 -334 8 -9 31 47 93 231 l54 160 75 3 c41 2 75 0
75 -5 0 -4 -13 -43 -30 -87 -16 -45 -68 -189 -115 -320 -47 -132 -91 -243 -97
-248 -7 -4 -34 -8 -59 -8 l-46 0 -41 108 c-87 227 -202 542 -202 552 0 6 31
10 74 10 l74 0 21 -62z m626 -60 l0 -123 113 -3 112 -3 0 126 0 125 70 0 70 0
0 -335 0 -336 -67 3 -68 3 -3 138 -3 137 -108 0 -108 0 -7 -37 c-3 -21 -6 -84
-6 -141 l0 -103 -67 3 -68 3 -2 324 c-1 178 0 328 3 333 3 4 35 8 72 8 l67 0
0 -122z m775 111 c88 -14 138 -38 190 -90 63 -64 90 -130 91 -221 1 -90 -11
-139 -50 -199 -35 -56 -83 -94 -153 -121 -42 -17 -83 -22 -200 -26 l-148 -4 0
336 0 336 103 0 c56 0 131 -5 167 -11z m530 -166 c0 -98 3 -215 7 -260 l6 -83
143 0 144 0 0 -75 0 -75 -217 2 -218 3 -3 320 c-1 176 0 325 3 332 3 9 26 13
70 13 l65 0 0 -177z m466 96 c7 -6 -3 -23 -30 -52 l-41 -44 -35 20 c-57 33
-57 35 11 66 61 28 70 29 95 10z m-3813 -121 c-2 -5 -10 -8 -18 -8 -8 0 -16 3
-18 8 -3 4 5 7 18 7 13 0 21 -3 18 -7z m4315 -44 c44 -30 19 -114 -35 -114
-30 0 -63 33 -63 65 0 27 35 65 60 65 8 0 26 -7 38 -16z m-3330 -121 c21 -32
48 -75 61 -95 l23 -38 -132 0 -131 0 32 48 c50 73 100 142 104 142 3 0 22 -26
43 -57z m-534 -92 c-5 -6 -34 20 -34 30 0 5 8 1 18 -8 10 -10 17 -20 16 -22z
m51 9 c-3 -5 -12 -10 -18 -10 -7 0 -6 4 3 10 19 12 23 12 15 0z"/>
<path d="M4047 8282 c-10 -10 -17 -33 -17 -50 0 -27 6 -35 34 -49 32 -15 37
-15 60 1 20 12 26 25 26 51 0 56 -67 87 -103 47z"/>
<path d="M4246 8279 c-49 -38 -25 -99 39 -99 61 0 87 58 45 100 -26 26 -51 25
-84 -1z"/>
<path d="M4446 8281 c-45 -50 8 -127 68 -99 47 21 47 85 0 106 -35 16 -48 15
-68 -7z"/>
<path d="M4642 8284 c-15 -10 -22 -25 -22 -48 0 -41 15 -56 56 -56 36 0 64 29
64 67 0 23 -34 53 -60 53 -9 0 -26 -7 -38 -16z"/>
<path d="M4837 8282 c-21 -23 -22 -75 -2 -92 38 -32 105 0 105 50 0 53 -68 80
-103 42z"/>
<path d="M4847 8068 c-22 -24 -27 -38 -22 -57 9 -38 34 -61 65 -61 74 0 82
119 8 123 -16 1 -24 7 -21 15 8 20 -1 14 -30 -20z"/>
<path d="M4065 8068 c-27 -15 -35 -28 -35 -60 0 -53 72 -77 110 -36 27 29 25
54 -5 83 -27 28 -40 30 -70 13z"/>
<path d="M4270 8073 c-27 -10 -50 -36 -50 -55 0 -25 44 -68 69 -68 26 0 61 38
61 66 0 12 -12 32 -26 43 -28 22 -30 23 -54 14z"/>
<path d="M4458 8073 c-9 -2 -22 -18 -28 -34 -11 -26 -10 -34 7 -57 26 -35 59
-39 89 -11 37 34 31 74 -13 98 -22 11 -27 12 -55 4z"/>
<path d="M4642 8064 c-31 -22 -26 -70 9 -97 24 -17 30 -18 55 -6 41 20 45 69
8 98 -32 25 -42 26 -72 5z"/>
<path d="M4881 7937 c2 -1 13 -9 24 -17 19 -14 19 -14 6 3 -7 9 -18 17 -24 17
-6 0 -8 -1 -6 -3z"/>
<path d="M4910 7891 c0 -6 4 -13 10 -16 6 -3 7 1 4 9 -7 18 -14 21 -14 7z"/>
<path d="M4262 7860 c-12 -5 -27 -21 -34 -35 -24 -54 58 -110 103 -69 52 47
-3 130 -69 104z"/>
<path d="M4462 7859 c-35 -13 -47 -50 -28 -86 20 -40 62 -49 94 -20 54 50 4
132 -66 106z"/>
<path d="M4041 7833 c-50 -62 42 -130 99 -73 25 25 25 41 -1 74 -28 35 -70 35
-98 -1z"/>
<path d="M4631 7834 c-46 -58 44 -130 94 -74 10 11 23 17 29 13 6 -3 5 0 -1 8
-7 7 -13 20 -13 29 0 24 -32 50 -63 50 -16 0 -33 -10 -46 -26z"/>
<path d="M4971 7747 c-13 -21 -12 -21 5 -5 10 10 16 20 13 22 -3 3 -11 -5 -18
-17z"/>
<path d="M4990 7717 c0 -8 7 -20 15 -27 11 -9 15 -10 15 -1 0 7 -7 19 -15 27
-13 13 -15 13 -15 1z"/>
<path d="M4052 7630 c-50 -47 -8 -124 55 -103 15 5 35 21 43 36 13 24 13 28
-6 54 -26 35 -62 40 -92 13z"/>
<path d="M4272 7642 c-12 -2 -29 -14 -38 -27 -36 -56 47 -115 97 -69 45 40 4
107 -59 96z"/>
<path d="M4958 7638 c-3 -7 -1 -24 3 -38 4 -14 7 -19 8 -11 1 11 4 11 19 0 11
-9 10 -5 -4 11 -12 14 -19 31 -17 38 3 6 3 12 0 12 -3 0 -7 -6 -9 -12z"/>
<path d="M4437 7622 c-24 -26 -21 -49 8 -77 29 -30 46 -31 73 -7 30 24 37 65
17 86 -22 22 -78 21 -98 -2z"/>
<path d="M4970 7540 c0 -5 5 -10 11 -10 5 0 7 5 4 10 -3 6 -8 10 -11 10 -2 0
-4 -4 -4 -10z"/>
<path d="M3624 8265 c-15 -23 -15 -27 0 -51 14 -20 24 -25 53 -22 47 4 61 26
43 67 -10 26 -18 31 -46 31 -25 0 -38 -7 -50 -25z"/>
<path d="M5266 8271 c-29 -32 -17 -64 28 -73 25 -5 43 -4 52 3 17 14 18 61 2
77 -18 18 -63 14 -82 -7z"/>
<path d="M3290 8272 c-29 -23 -22 -62 14 -82 35 -18 76 8 76 48 0 52 -47 69
-90 34z"/>
<path d="M5616 8275 c-21 -22 -20 -48 3 -69 24 -22 59 -17 77 9 30 46 -40 99
-80 60z"/>
<path d="M2970 8020 c-25 -25 -26 -52 -2 -73 37 -34 102 -8 102 40 0 20 -38
53 -60 53 -11 0 -29 -9 -40 -20z"/>
<path d="M5930 8023 c-41 -52 -13 -100 55 -93 68 7 58 95 -13 113 -16 4 -28
-2 -42 -20z"/>
<path d="M2605 7732 c-3 -8 -5 -29 -5 -48 l0 -35 73 3 72 3 3 42 3 41 -70 4
c-52 2 -72 -1 -76 -10z"/>
<path d="M4790 7556 c0 -8 5 -18 10 -21 6 -3 10 1 10 9 0 8 -4 18 -10 21 -5 3
-10 -1 -10 -9z"/>
<path d="M4726 7522 c-2 -4 0 -14 6 -22 8 -12 9 -12 5 2 -3 9 -1 19 6 22 9 3
9 5 0 5 -6 1 -14 -3 -17 -7z"/>
<path d="M4940 7516 c0 -2 8 -10 18 -17 15 -13 16 -12 3 4 -13 16 -21 21 -21
13z"/>
<path d="M4797 7463 c-10 -9 -9 -23 1 -23 5 0 9 7 9 15 0 17 -1 18 -10 8z"/>
<path d="M4457 7268 c18 -20 28 -24 17 -6 -5 8 -2 9 9 5 10 -3 17 -3 17 2 0 5
-13 11 -30 13 -28 4 -29 4 -13 -14z"/>
<path d="M6080 6390 c-9 -6 -10 -10 -3 -10 6 0 15 5 18 10 8 12 4 12 -15 0z"/>
<path d="M6860 5604 c0 -8 5 -12 10 -9 6 4 8 11 5 16 -9 14 -15 11 -15 -7z"/>
<path d="M6856 5573 c-9 -9 -7 -33 3 -33 12 0 22 28 12 34 -5 3 -11 3 -15 -1z"/>
<path d="M6825 5530 c-3 -5 1 -10 10 -10 9 0 13 5 10 10 -3 6 -8 10 -10 10 -2
0 -7 -4 -10 -10z"/>
<path d="M4280 6890 c0 -5 5 -10 11 -10 8 0 8 -5 -1 -15 -7 -8 -8 -15 -4 -15
5 0 15 9 22 21 8 12 9 18 3 14 -6 -3 -11 -1 -11 4 0 6 -4 11 -10 11 -5 0 -10
-4 -10 -10z"/>
<path d="M4686 7031 c10 -10 23 -16 27 -14 5 3 0 11 -10 19 -27 20 -39 17 -17
-5z"/>
<path d="M4680 6962 c0 -5 7 -9 15 -9 8 0 15 4 15 9 0 4 -7 8 -15 8 -8 0 -15
-4 -15 -8z"/>
<path d="M1440 6760 c-44 -44 -10 -120 55 -120 36 0 75 36 75 70 0 10 -9 29
-21 44 -26 33 -79 36 -109 6z"/>
<path d="M1080 5892 c0 -7 -20 -9 -53 -5 -87 9 -177 -46 -212 -129 -43 -104
10 -228 117 -272 132 -56 288 48 288 190 0 77 -37 138 -116 192 -17 11 -17 12
2 2 17 -7 25 -6 34 5 10 12 9 15 -8 15 -11 0 -27 3 -36 6 -9 3 -16 1 -16 -4z
m-22 -118 c60 -41 65 -123 11 -168 -90 -76 -203 31 -142 134 28 48 88 64 131
34z"/>
<path d="M1711 5964 c-42 -54 -14 -116 53 -116 48 0 79 29 79 71 0 69 -89 99
-132 45z"/>
<path d="M4833 5945 c0 -8 11 -25 25 -37 l25 -23 -14 23 c-8 12 -17 22 -22 22
-4 0 -6 4 -2 9 3 5 2 12 -3 15 -5 3 -9 -1 -9 -9z"/>
<path d="M4940 5831 c0 -6 5 -13 10 -16 6 -3 10 1 10 9 0 9 -4 16 -10 16 -5 0
-10 -4 -10 -9z"/>
<path d="M1741 5459 c-62 -38 -33 -149 40 -149 31 0 89 58 89 90 0 28 -42 72
-72 75 -14 2 -40 -5 -57 -16z"/>
<path d="M1330 5486 c0 -2 7 -7 16 -10 8 -3 12 -2 9 4 -6 10 -25 14 -25 6z"/>
<path d="M1300 5446 c0 -2 8 -10 18 -17 15 -13 16 -12 3 4 -13 16 -21 21 -21
13z"/>
<path d="M5512 5291 c-11 -6 -11 -10 0 -18 27 -21 36 -23 34 -8 -3 23 -20 35
-34 26z m23 -11 c3 -5 1 -10 -4 -10 -6 0 -11 5 -11 10 0 6 2 10 4 10 3 0 8 -4
11 -10z"/>
<path d="M5570 5241 c0 -7 -5 -9 -12 -5 -7 5 -8 3 -3 -5 5 -9 10 -10 18 -2 6
6 8 14 4 18 -4 3 -7 1 -7 -6z"/>
<path d="M4319 5106 c-85 -18 -189 -62 -261 -110 -129 -85 -245 -243 -284
-386 -24 -88 -29 -262 -10 -350 34 -162 155 -339 297 -436 141 -95 267 -128
464 -121 149 5 221 24 325 84 83 48 224 189 273 273 83 144 117 342 84 497
-54 250 -256 462 -507 533 -98 27 -288 35 -381 16z m269 -162 c94 -19 201 -69
265 -124 62 -55 133 -155 159 -227 30 -80 31 -252 4 -337 -11 -33 -21 -55 -22
-50 -1 5 -5 26 -9 47 l-6 38 -36 -73 c-49 -97 -156 -207 -244 -248 -204 -95
-432 -50 -597 118 -54 55 -70 67 -62 47 6 -15 8 -30 5 -34 -17 -16 -89 120
-106 201 -26 119 16 384 74 476 32 49 103 99 156 108 20 4 63 18 95 31 109 45
199 53 324 27z m-518 -864 c0 -5 -2 -10 -4 -10 -3 0 -8 5 -11 10 -3 6 -1 10 4
10 6 0 11 -4 11 -10z"/>
<path d="M4419 4744 c0 -5 0 -40 1 -77 2 -82 -23 -142 -78 -187 -41 -34 -110
-60 -160 -60 l-34 0 4 -52 c10 -107 91 -217 196 -266 77 -36 192 -38 267 -4
68 31 138 102 172 176 39 84 39 195 2 276 -55 116 -165 190 -296 198 -40 3
-73 1 -74 -4z"/>
<path d="M6305 4510 c3 -5 11 -10 16 -10 6 0 7 5 4 10 -3 6 -11 10 -16 10 -6
0 -7 -4 -4 -10z"/>
<path d="M770 3390 c-41 -41 -17 -94 43 -94 27 0 32 -4 32 -23 0 -28 -24 -30
-65 -6 -23 13 -32 14 -43 4 -12 -9 -13 -20 -4 -54 6 -23 18 -47 26 -54 22 -17
76 -16 112 2 29 15 30 15 74 -22 25 -20 45 -39 45 -42 0 -9 -84 -91 -93 -91
-6 0 -20 11 -33 25 -13 14 -32 25 -44 25 -32 0 -72 -45 -68 -78 3 -25 6 -27
46 -24 60 4 52 -28 -11 -43 -54 -14 -63 -98 -12 -111 34 -9 75 19 75 51 0 14
5 25 10 25 6 0 10 -7 10 -15 0 -15 30 -35 52 -35 39 1 69 75 40 103 -13 14
-12 20 16 55 56 70 55 70 113 13 48 -47 50 -52 34 -67 -22 -23 -15 -63 16 -87
22 -15 30 -17 48 -8 11 7 21 18 21 26 0 8 7 15 16 15 8 0 12 -5 9 -10 -11 -18
6 -51 31 -60 34 -13 72 4 80 36 6 22 2 32 -20 51 -17 14 -35 21 -46 18 -11 -4
-20 1 -24 11 -8 20 12 36 34 28 31 -13 44 -8 54 18 7 19 6 35 -2 53 -10 21
-18 25 -56 25 -36 0 -48 -5 -65 -26 l-20 -26 -56 49 -55 48 32 28 c64 56 72
59 104 42 31 -16 82 -20 100 -7 17 12 24 40 17 73 -7 38 -28 47 -53 24 -25
-22 -52 -12 -48 17 2 18 12 24 42 29 61 10 86 58 48 92 -36 33 -112 7 -112
-38 0 -10 -10 -15 -32 -15 -18 0 -38 -4 -45 -8 -17 -11 -26 -58 -15 -79 9 -16
3 -26 -40 -62 l-50 -44 -39 44 c-35 41 -38 47 -33 89 9 66 -14 82 -78 55 -14
-6 -18 -2 -18 18 0 28 -32 57 -62 57 -10 0 -27 -9 -38 -20z"/>
<path d="M1754 3191 c3 -5 -1 -11 -9 -14 -7 -3 -21 -19 -29 -36 -21 -39 -8
-74 33 -91 26 -11 35 -10 56 4 41 27 48 60 25 107 -17 32 -25 39 -51 39 -17 0
-28 -4 -25 -9z"/>
<path d="M7194 3178 c-22 -10 -44 -47 -44 -72 0 -7 9 -25 21 -40 42 -53 123
-21 123 49 0 59 -47 89 -100 63z"/>
<path d="M2790 2584 c0 -8 5 -12 10 -9 6 4 8 11 5 16 -9 14 -15 11 -15 -7z"/>
<path d="M6129 2523 l-24 -28 28 24 c15 14 27 26 27 28 0 8 -8 1 -31 -24z"/>
<path d="M2094 2780 c-31 -12 -52 -46 -47 -75 12 -59 89 -78 130 -31 30 36 29
70 -3 95 -29 22 -46 25 -80 11z"/>
<path d="M2240 2750 c13 -8 12 -10 -2 -10 -20 0 -21 -5 -8 -35 7 -19 9 -18 19
8 15 39 14 47 -6 47 -15 0 -16 -2 -3 -10z"/>
<path d="M2240 2675 c-7 -9 -10 -18 -7 -21 3 -3 10 4 17 15 13 25 8 27 -10 6z"/>
<path d="M2203 2605 c0 -8 4 -12 9 -9 5 3 6 10 3 15 -9 13 -12 11 -12 -6z"/>
<path d="M6890 2815 c10 -12 7 -15 -17 -20 -76 -16 -111 -63 -83 -112 34 -60
111 -50 137 17 9 22 20 40 25 40 18 0 7 33 -21 61 -31 30 -65 42 -41 14z"/>
<path d="M2289 2372 c-47 -39 -16 -122 46 -122 28 0 65 43 65 76 0 31 -33 64
-64 64 -13 0 -34 -8 -47 -18z"/>
<path d="M6600 2370 c-25 -25 -26 -72 -2 -93 25 -22 75 -21 95 1 37 41 6 112
-48 112 -14 0 -34 -9 -45 -20z"/>
<path d="M5150 2236 c0 -2 8 -10 18 -17 15 -13 16 -12 3 4 -13 16 -21 21 -21
13z"/>
<path d="M4550 2201 c0 -6 4 -13 10 -16 6 -3 7 1 4 9 -7 18 -14 21 -14 7z"/>
<path d="M4580 2202 c0 -4 9 -13 20 -20 19 -12 20 -11 8 8 -13 20 -28 27 -28
12z"/>
<path d="M4586 2153 c-6 -14 -5 -15 5 -6 7 7 10 15 7 18 -3 3 -9 -2 -12 -12z"/>
<path d="M2662 2203 c-16 -6 -42 -57 -42 -83 0 -27 35 -60 64 -60 37 0 76 37
76 71 0 51 -53 90 -98 72z"/>
<path d="M6257 2172 c-19 -21 -22 -64 -7 -93 16 -28 84 -27 104 3 22 32 20 55
-9 83 -29 30 -65 32 -88 7z"/>
<path d="M6251 1527 c-107 -57 -122 -195 -31 -282 28 -27 39 -30 101 -32 38
-1 69 2 69 7 0 4 20 16 45 25 24 10 42 22 39 27 -4 6 -10 5 -15 -3 -5 -8 -9
-10 -9 -6 0 18 36 53 50 50 9 -3 11 -1 5 4 -6 4 -10 34 -10 67 2 57 1 60 -40
97 -45 41 -100 69 -137 69 -13 0 -43 -10 -67 -23z m142 -110 c19 -37 19 -37
-3 -71 -24 -40 -48 -50 -90 -41 -33 7 -70 48 -70 76 0 34 24 72 55 85 42 17
83 -1 108 -49z"/>
<path d="M2648 1425 c-34 -23 -58 -67 -58 -107 0 -29 60 -84 103 -96 46 -13
75 -6 109 26 41 38 53 75 39 123 -23 76 -120 104 -193 54z"/>
<path d="M6521 1378 c-1 -10 6 -18 14 -18 8 0 15 5 15 11 0 5 -4 8 -9 5 -5 -4
-12 0 -14 6 -3 8 -6 6 -6 -4z"/>
<path d="M6511 1344 c-1 -6 5 -17 12 -23 10 -8 14 -7 14 4 0 8 -4 12 -8 9 -4
-2 -10 2 -12 8 -4 8 -6 9 -6 2z"/>
<path d="M6202 1201 c-8 -4 -14 -12 -15 -17 -1 -5 -6 -8 -12 -6 -5 1 3 -8 18
-21 16 -13 41 -24 58 -24 17 0 35 -6 41 -14 8 -11 9 -11 5 3 -4 11 2 18 16 22
33 9 44 7 27 -4 -13 -9 -13 -10 0 -9 8 1 26 5 40 9 23 7 23 8 3 9 -26 1 -39
17 -21 25 7 3 0 3 -16 1 -16 -2 -33 -10 -38 -17 -6 -10 -8 -8 -8 5 0 21 -3 21
-42 1 -29 -15 -31 -15 -24 2 6 15 5 17 -5 7 -7 -7 -20 -13 -28 -13 -14 0 -14
2 -2 9 8 5 16 17 17 25 3 18 3 18 -14 7z m78 -51 c0 -5 -4 -10 -10 -10 -5 0
-10 5 -10 10 0 6 5 10 10 10 6 0 10 -4 10 -10z"/>
<path d="M6295 1190 c4 -6 11 -8 16 -5 14 9 11 15 -7 15 -8 0 -12 -5 -9 -10z"/>
<path d="M6420 1160 c-8 -5 -10 -10 -5 -10 6 0 17 5 25 10 8 5 11 10 5 10 -5
0 -17 -5 -25 -10z"/>
<path d="M1549 2133 c-13 -16 -12 -17 3 -5 9 8 22 11 28 7 5 -3 10 -1 10 4 0
17 -26 13 -41 -6z"/>
<path d="M1434 2115 c-15 -11 -16 -14 -3 -15 8 0 24 7 35 15 15 11 16 14 3 15
-8 0 -24 -7 -35 -15z"/>
<path d="M2144 1167 c-14 -13 -28 -35 -29 -50 -4 -36 35 -77 75 -77 30 0 69
29 71 53 5 49 -17 80 -63 91 -20 4 -34 0 -54 -17z"/>
<path d="M6789 1175 c-49 -27 -43 -103 12 -134 22 -12 29 -12 54 0 56 27 59
106 5 134 -35 18 -38 18 -71 0z"/>
<path d="M4940 850 l0 -190 60 0 c98 0 158 33 191 105 49 105 -10 234 -119
265 -20 5 -58 10 -84 10 l-48 0 0 -190z"/>
</g>
</svg>
